<svg width="48" height="48" viewBox="0 0 48 48" fill="none" xmlns="http://www.w3.org/2000/svg">
<rect width="48" height="48" rx="6" fill="#1890FF"/>
<g clip-path="url(#clip0_912_640)">
<path d="M30.6666 33.3333H33.3333V22.6667H25.3333V33.3333H28V25.3333H30.6666V33.3333ZM12 33.3333V13.3333C12 12.9797 12.1404 12.6406 12.3905 12.3905C12.6405 12.1405 12.9797 12 13.3333 12H32C32.3536 12 32.6927 12.1405 32.9428 12.3905C33.1928 12.6406 33.3333 12.9797 33.3333 13.3333V20H36V33.3333H37.3333V36H10.6666V33.3333H12ZM17.3333 22.6667V25.3333H20V22.6667H17.3333ZM17.3333 28V30.6667H20V28H17.3333ZM17.3333 17.3333V20H20V17.3333H17.3333Z" fill="white"/>
</g>
<defs>
<clipPath id="clip0_912_640">
<rect width="32" height="32" fill="white" transform="translate(8 8)"/>
</clipPath>
</defs>
</svg>
