<svg width="178" height="117" viewBox="0 0 178 117" fill="none" xmlns="http://www.w3.org/2000/svg">
<g clip-path="url(#clip0_14_41471)">
<path fill-rule="evenodd" clip-rule="evenodd" d="M95.947 28.0801C95.947 32.3878 92.4251 35.8803 88.0804 35.8803C83.7358 35.8803 80.2137 32.3878 80.2137 28.0801C80.2137 23.7725 83.7358 20.2803 88.0804 20.2803C92.4251 20.2803 95.947 23.7725 95.947 28.0801ZM146.9 43.6421C149.675 43.6421 148.377 39.2785 144.861 40.3208C144.666 34.2622 134.706 29.8292 130.588 38.0009C129.424 37.0873 126.809 38.8129 127.388 40.3208C126.094 40.4302 125.077 40.5784 124.285 40.775C122.457 41.2287 122.819 43.6216 124.703 43.6048L146.9 43.6421ZM94.6136 43.6421C91.9893 43.6421 93.2171 39.5159 96.5417 40.5014C96.7258 34.7723 106.144 30.5804 110.039 38.3076C111.14 37.4438 113.612 39.0755 113.065 40.5014C114.288 40.6047 115.25 40.7451 115.999 40.9308C117.727 41.36 117.385 43.6227 115.603 43.6069L94.6136 43.6421ZM126.517 28.5372C125.266 28.5372 125.852 26.571 127.436 27.0405C127.523 24.3105 132.011 22.3131 133.867 25.9951C134.392 25.5835 135.57 26.3612 135.309 27.0405C135.892 27.0899 136.35 27.1568 136.707 27.2453C137.531 27.4496 137.368 28.5278 136.519 28.5204L126.517 28.5372ZM115.487 35.7871H122.611C123.248 35.7871 123.523 34.9694 123.002 34.6067L122.98 34.5913C122.237 34.0857 121.264 34.1315 121.264 34.1315C121.264 34.1315 121.124 31.3953 118.504 31.3953C116.135 31.3953 115.19 33.7008 114.849 34.971C114.739 35.3836 115.057 35.7871 115.487 35.7871ZM38.0039 43.3921H30.1376C29.5008 43.3921 29.2261 42.5744 29.7475 42.2115L29.7697 42.1963C30.5117 41.6905 31.4858 41.7363 31.4858 41.7363C31.4858 41.7363 31.6248 39.0003 34.2454 39.0003C35.5411 39.0003 36.5879 41.1962 36.5879 41.1962C36.5879 41.1962 38.3504 41.1962 38.6421 42.5758C38.7304 42.9939 38.4348 43.3921 38.0039 43.3921ZM49.0916 44.0703H80.5014C83.4498 44.0703 83.3145 41.6507 82.3515 40.8075C81.3644 39.9433 79.414 40.2939 79.414 40.2939C79.414 40.2939 78.8333 38.6664 76.9221 37.874C75.2313 37.1731 73.4604 37.5066 73.4604 37.5066C73.4604 37.5066 73.4604 36.3896 72.3779 35.4647C71.2953 34.5395 69.8519 34.6295 69.8519 34.6295C69.8519 34.6295 68.8597 28.4703 62.2295 28.4703C55.5991 28.4703 54.8325 34.2696 54.8325 34.2696C54.8325 34.2696 53.3439 34.2696 52.2615 35.2588C51.1788 36.2478 51.0437 37.3716 51.0437 37.3716C51.0437 37.3716 47.4235 36.8855 46.3526 39.9983C45.7146 41.8533 47.0256 44.0703 49.0916 44.0703ZM37.8564 31.4099H47.7013C48.6255 31.4099 48.583 30.6515 48.2811 30.3871C47.9718 30.1163 47.3605 30.2262 47.3605 30.2262C47.3605 30.2262 47.1784 29.7161 46.5794 29.4677C46.0495 29.2481 45.4944 29.3526 45.4944 29.3526C45.4944 29.3526 45.4944 29.0024 45.1551 28.7125C44.8159 28.4225 44.3633 28.4508 44.3633 28.4508C44.3633 28.4508 44.0524 26.5203 41.9742 26.5203C39.896 26.5203 39.6557 28.3381 39.6557 28.3381C39.6557 28.3381 39.1892 28.3381 38.85 28.6481C38.5105 28.958 38.4682 29.3103 38.4682 29.3103C38.4682 29.3103 37.3335 29.1578 36.998 30.1336C36.798 30.7151 37.2088 31.4099 37.8564 31.4099Z" fill="white" stroke="#F0F0F0" stroke-width="1.80545"/>
<path d="M77.792 95.9048V74.6851M100.008 95.9048V74.6851" stroke="#F0F0F0" stroke-width="1.80545" stroke-linecap="round" stroke-linejoin="round"/>
<path fill-rule="evenodd" clip-rule="evenodd" d="M74.1006 83.8776H103.686V80.4811H74.1006V83.8776ZM74.1006 78.9367H103.686V75.3345H74.1006V78.9367Z" fill="white" stroke="#F0F0F0" stroke-width="1.80545"/>
<path fill-rule="evenodd" clip-rule="evenodd" d="M71.1943 89.3325H106.594V86.7593H71.1943V89.3325Z" fill="white"/>
<path fill-rule="evenodd" clip-rule="evenodd" d="M71.1943 89.3325H106.594V86.7593H71.1943V89.3325Z" fill="white" stroke="#F0F0F0" stroke-width="1.80545"/>
<path d="M143.388 97.8885C138.587 97.975 137.317 98.3432 132.334 98.1917C129.96 98.2133 127.426 98.1484 125.106 98.1051C124.003 97.8235 122.063 98.1051 120.754 97.8668L120.252 98.0183C119.803 97.9317 119.278 97.8885 118.822 97.975L118.852 98.0183C118.183 97.9101 117.422 97.975 117.095 97.9101L117.125 97.9534L116.311 97.9317L116.448 97.9967C115.276 97.8668 114.074 97.8668 113.009 97.9101L113.101 97.7153C110.826 97.9318 109.996 97.5419 107.95 97.7802L107.98 97.8235C105.386 97.3255 103.887 98.17 101.217 97.6937C101.552 97.7586 101.072 97.7802 101.103 97.8452C99.8703 97.8019 98.5617 97.7586 98.5389 97.3904C97.6413 97.3904 97.8087 97.4987 97.6944 97.6502C97.7021 97.4987 96.9186 97.4121 96.2186 97.4121L96.538 97.477L94.5297 97.4121L94.9251 97.1088C93.86 97.1954 94.6514 97.477 93.6395 97.4121L93.6547 97.1521C92.1864 97.1954 91.3191 97.5852 89.8964 97.7802C83.9773 97.8885 77.6171 97.2387 72.1165 97.6937L71.8731 97.8885C71.7667 98.17 70.3514 97.477 70.1461 97.7369L69.507 97.6069C69.3245 97.6502 68.9441 97.7153 69.2635 97.7802C68.6702 97.8019 68.655 97.7369 68.2288 97.6718L67.5899 97.8452C65.2542 97.975 63.2685 97.6502 60.8111 97.7153C57.8592 98.0616 52.2978 97.7369 49.0949 97.5636C44.5909 97.1521 39.3566 98.2566 34.7463 97.7802C34.5941 97.8235 34.2061 97.7369 34.2138 97.6937L29.9913 97.7369C29.9913 97.7369 9.53346 97.8452 25.0766 95.528L24.97 95.463C27.2828 95.3113 28.736 95.2897 30.326 95.5929C30.577 95.2248 32.2203 95.5496 32.7606 95.4414L32.7073 95.4198C34.1148 95.7011 35.606 95.1815 36.9677 95.4414C36.9146 95.4198 36.8841 95.3113 36.5722 95.3113C37.5612 95.3548 38.9155 95.4414 38.9916 95.2248C41.3575 95.2897 44.6518 95.1815 46.1658 95.528L46.0594 95.463C46.919 95.7011 47.1776 95.5063 48.1439 95.6146C48.1971 95.5929 48.2656 95.5713 48.2504 95.5496C49.1937 95.7879 50.9969 95.5929 51.7501 95.6795L51.7958 95.528L53.6672 95.5713L52.9673 95.5929C53.2108 95.9827 54.3823 95.3332 55.7366 95.5929C57.0072 95.5496 58.3156 96.4158 59.6319 96.221C60.2634 96.4158 59.0766 95.9178 60.02 96.0693C60.0503 95.8529 59.5786 95.9394 59.8221 95.7663C60.7427 95.8745 61.3361 95.5496 62.4773 95.7011L62.5229 95.5496C64.0064 95.8529 65.3227 95.333 66.3117 95.6146C67.8408 95.7446 67.3387 95.1382 68.9364 95.4414L69.5603 95.2248C70.2451 95.1815 70.0472 95.4847 70.8079 95.3765C70.7623 95.2464 71.7667 95.268 71.3177 95.1382C73.0295 94.9215 74.7945 95.4414 77.054 95.0732C77.541 95.333 78.6823 95.1815 79.0475 95.3765C79.1082 95.268 81.3221 95.3546 80.0516 95.0949C79.945 95.0732 79.7474 95.0732 79.7625 95.1165L79.6103 94.9648C80.8961 94.6618 81.9459 95.1382 83.2241 95.0732C82.8437 95.1165 82.3416 95.1165 82.6764 95.2248L83.8632 95.2031L83.6198 95.0732L85.3848 94.9867L85.1414 95.1598C86.001 95.0732 86.3054 94.7917 87.2791 95.03C87.7205 95.1598 86.4651 95.2464 87.3706 95.3113C88.527 95.2031 90.2539 95.03 91.7222 94.9867C91.5854 95.1815 91.9809 95.1598 92.3917 95.2031L92.4373 95.0516C93.9971 95.268 93.008 94.7051 94.5599 94.8782L94.4231 94.77L94.8339 95.1165C96.2338 95.4414 95.5871 94.7917 97.139 95.2248C96.5229 95.2031 96.8501 95.5713 97.6032 95.5063L97.413 95.3548C97.8315 95.3981 97.9684 95.463 98.2498 95.4198C97.9989 95.333 98.1206 95.2031 98.7367 95.2248L98.3259 95.03L99.49 95.3113C100.388 95.1382 101.81 95.3546 102.183 95.1382C102.183 95.1382 104.116 95.03 104.557 95.268C104.169 95.1165 105.234 95.0516 104.93 94.8782C105.432 95.0516 106.908 95.1815 107.501 95.0083L107.387 94.9867C109.578 94.7917 111.13 95.2464 113.093 95.0083C113.002 95.2031 114.044 95.0949 113.785 95.333C115.817 95.5713 117.49 94.835 118.228 95.5929C119.157 95.6362 119.324 95.4198 119.803 95.3765L119.583 95.333C121.317 95.3981 121.819 95.3981 123.105 95.3765C123.744 95.4414 123.851 95.7879 124.999 95.7011C124.627 95.5713 125.098 95.5929 125.524 95.5929C125.251 95.5713 125.167 95.528 125.73 95.4198C125.806 95.463 125.935 95.4847 126.049 95.5063C126.057 95.5063 126.08 95.4847 126.065 95.463C126.78 95.5063 126.658 95.5496 126.323 95.5713C126.339 95.5929 126.316 95.6146 126.209 95.6579C126.955 95.4847 128.286 95.6795 128.377 95.4414C130.538 95.5063 132.083 95.7446 133.878 95.8312C134.083 95.7011 133.657 95.5929 133.14 95.5496L134.418 95.5929C134.411 95.4198 133.688 95.4847 133.292 95.463C134.814 95.1815 136.427 95.7446 138.207 95.4847L138.58 95.6146L138.686 95.5929C138.679 95.6579 139.082 95.7663 139.341 95.7879C139.591 95.6362 139.325 95.4414 140.208 95.4414C140.908 95.2897 142.186 95.5063 143.099 95.5929C142.604 95.6146 142.764 95.7011 142.977 95.7663C143.418 95.7663 143.669 95.6146 144.012 95.6795L144.057 95.4847C143.882 95.6795 145.206 95.7011 145.373 95.7663C145.625 95.6146 144.689 95.6362 144.582 95.528C146.347 95.5496 145.465 95.528 147.238 95.5496C148.181 95.7011 147.062 95.7444 147.519 95.9178C148.348 95.9611 149.162 96.0909 150.121 95.9827L149.817 96.1561C151.384 96.3076 152.32 96.2859 153.37 96.0909C165.025 97.5636 155.827 98.1051 155.827 98.1051C151.216 98.5598 148.85 98.04 143.388 97.8885Z" fill="#F0F0F0"/>
<path d="M145.973 99.106C140.943 99.3077 139.612 100.165 134.391 99.8119C131.904 99.8623 129.25 99.7111 126.818 99.6103C125.662 98.9547 123.63 99.6103 122.259 99.0555L121.733 99.4085C121.262 99.2069 120.712 99.1058 120.234 99.3077L120.266 99.4085C119.564 99.1564 118.767 99.3077 118.425 99.1564L118.456 99.2572L117.604 99.2069L117.747 99.3582C116.519 99.0555 115.26 99.0555 114.144 99.1564L114.24 98.7026C111.856 99.2069 110.987 98.2991 108.843 98.8539L108.875 98.9547C106.157 97.7951 104.586 99.7614 101.789 98.6523C102.139 98.8034 101.637 98.8539 101.669 99.005C100.377 98.9042 99.0065 98.8034 98.9825 97.9464C98.0421 97.9464 98.2173 98.1983 98.0977 98.5513C98.1058 98.1983 97.2847 97.9967 96.5513 97.9967L96.8861 98.148L94.7817 97.9967L95.1963 97.2908C94.0802 97.4924 94.9094 98.148 93.8491 97.9967L93.8651 97.3916C92.3265 97.4924 91.4179 98.4001 89.9272 98.8539C83.7255 99.106 77.0617 97.5934 71.2984 98.6523L71.0433 99.106C70.9318 99.7614 69.4491 98.148 69.2339 98.7529L68.5643 98.4504C68.3729 98.5513 67.9745 98.7026 68.3092 98.8539C67.6874 98.9042 67.6714 98.7529 67.2252 98.6018L66.5555 99.005C64.1084 99.3077 62.0279 98.5513 59.4531 98.7026C56.3603 99.5093 50.5333 98.7531 47.1774 98.3496C42.4584 97.3916 36.9741 99.9631 32.1436 98.8539C31.9841 98.9547 31.5776 98.7531 31.5856 98.6523L27.1616 98.7529C27.1616 98.7529 5.72693 99.0052 22.0121 93.61L21.9006 93.4588C24.3237 93.1059 25.8463 93.0554 27.5123 93.7613C27.7754 92.9041 29.497 93.6605 30.0631 93.4083L30.0072 93.3578C31.482 94.0134 33.0443 92.8032 34.4711 93.4083C34.4155 93.3578 34.3836 93.1057 34.0568 93.1057C35.093 93.2065 36.5118 93.4083 36.5916 92.9041C39.0706 93.0554 42.5221 92.8032 44.1084 93.61L43.9969 93.4588C44.8976 94.0134 45.1686 93.5595 46.1811 93.8116C46.2367 93.7613 46.3085 93.7108 46.2926 93.6605C47.281 94.215 49.1702 93.7613 49.9594 93.9629L50.0072 93.61L51.9682 93.7108L51.2348 93.7613C51.4899 94.6688 52.7175 93.1562 54.1362 93.7613C55.4675 93.6605 56.8386 95.6774 58.2177 95.2234C58.8792 95.6774 57.6357 94.5177 58.6242 94.8706C58.656 94.3664 58.1618 94.568 58.4169 94.1647C59.3813 94.4167 60.0032 93.6605 61.1989 94.0134L61.2467 93.6605C62.801 94.3664 64.18 93.1562 65.2164 93.8116C66.8187 94.1142 66.2924 92.7024 67.9664 93.4083L68.6201 92.9041C69.3376 92.8032 69.1303 93.5091 69.9274 93.257C69.8796 92.9546 70.9318 93.0049 70.4615 92.7024C72.2549 92.1982 74.1044 93.4083 76.4719 92.5511C76.982 93.1562 78.1776 92.8032 78.5603 93.257C78.624 93.0049 80.9437 93.2065 79.6124 92.6014C79.5009 92.5511 79.2936 92.5511 79.3096 92.6519L79.1501 92.299C80.4972 91.5931 81.5972 92.7024 82.9365 92.5511C82.5378 92.6519 82.0118 92.6519 82.3624 92.9041L83.6059 92.8536L83.3511 92.5511L85.2003 92.3495L84.9452 92.7529C85.846 92.5511 86.1648 91.8955 87.1851 92.4503C87.6474 92.7527 86.3321 92.9546 87.2809 93.1057C88.4925 92.8536 90.3019 92.4503 91.8404 92.3495C91.6968 92.8032 92.1114 92.7527 92.5419 92.8536L92.5897 92.5008C94.2238 93.0049 93.1875 91.6939 94.8136 92.0973L94.6702 91.8452L95.1005 92.6519C96.5673 93.4083 95.8897 91.8957 97.516 92.9041C96.8701 92.8538 97.2129 93.7108 98.0021 93.5595L97.8029 93.2067C98.2413 93.3075 98.3847 93.4586 98.6797 93.3578C98.4167 93.1562 98.5442 92.8538 99.1898 92.9041L98.7595 92.4503L99.979 93.1057C100.92 92.7024 102.41 93.2065 102.801 92.7024C102.801 92.7024 104.825 92.4503 105.288 93.0049C104.881 92.6519 105.997 92.5008 105.678 92.0973C106.205 92.5008 107.751 92.8032 108.373 92.3998L108.253 92.3495C110.549 91.8957 112.175 92.9546 114.232 92.3998C114.136 92.8536 115.228 92.6014 114.957 93.1562C117.085 93.7108 118.839 91.9965 119.612 93.7613C120.585 93.8621 120.76 93.3578 121.262 93.257L121.031 93.1562C122.849 93.3073 123.375 93.3075 124.722 93.257C125.391 93.4083 125.503 94.215 126.707 94.0134C126.316 93.7108 126.81 93.7613 127.257 93.7613C126.97 93.7108 126.882 93.61 127.472 93.3578C127.552 93.4586 127.687 93.5091 127.807 93.5595C127.815 93.5595 127.839 93.5091 127.823 93.4588C128.572 93.5597 128.444 93.6605 128.094 93.7108C128.11 93.7613 128.086 93.8116 127.974 93.9126C128.755 93.5091 130.15 93.9629 130.246 93.4083C132.51 93.5595 134.128 94.1142 136.009 94.3159C136.224 94.0134 135.778 93.7613 135.236 93.6605L136.575 93.7613C136.567 93.3578 135.81 93.5091 135.395 93.4588C136.99 92.8032 138.68 94.1142 140.545 93.5091L140.935 93.8116L141.047 93.7613C141.039 93.9126 141.462 94.1645 141.733 94.2151C141.995 93.8621 141.717 93.4083 142.641 93.4083C143.375 93.0554 144.714 93.5597 145.67 93.7613C145.152 93.8116 145.32 94.0134 145.543 94.1647C146.005 94.1647 146.268 93.8116 146.627 93.9629L146.675 93.5091C146.491 93.9629 147.878 94.0134 148.054 94.1647C148.317 93.8118 147.336 93.8621 147.225 93.61C149.074 93.6605 148.149 93.61 150.007 93.6605C150.995 94.0134 149.823 94.1142 150.302 94.5175C151.17 94.6185 152.023 94.921 153.028 94.6688L152.709 95.0723C154.351 95.4252 155.331 95.3747 156.431 94.921C168.643 98.3496 159.006 99.6103 159.006 99.6103C154.176 100.669 151.696 99.459 145.973 99.106Z" fill="#F0F0F0"/>
<path d="M119.118 95.8574C119.118 95.8574 116.207 92.1594 114.991 91.5927C113.694 90.9888 114.818 93.0812 114.818 93.0812C114.818 93.0812 112.046 90.3863 111.395 91.059C110.744 91.732 111.439 92.3616 111.439 92.3616C111.439 92.3616 109.118 91.9348 108.779 92.7955C108.259 94.1178 112.077 94.7755 112.077 94.7755C112.077 94.7755 110.248 94.3781 110.614 95.1969C111.166 96.4313 119.118 95.8574 119.118 95.8574ZM119.895 95.9506C119.895 95.9506 124.534 96.2751 125.437 95.4531C126.34 94.6314 125.444 93.1424 125.444 93.1424C125.444 93.1424 127.036 91.8973 127.011 91.0844C126.986 90.2716 125.949 90.684 125.949 90.684C125.949 90.684 127.707 88.4448 127.29 88.0188C126.514 87.2257 124.482 89.5532 124.482 89.5532C124.482 89.5532 125.085 88.446 124.449 88.2703C123.489 88.0049 122.783 90.7359 122.783 90.7359C122.783 90.7359 122.963 89.6574 122.301 89.8007C121.114 90.0575 119.895 95.9506 119.895 95.9506Z" fill="#F0F0F0"/>
<path fill-rule="evenodd" clip-rule="evenodd" d="M125.164 76.7676C124.695 77.4536 125.005 79.1332 125.527 80.8609C125.135 80.4559 124.701 80.2384 124.238 80.3665C122.952 80.7216 124.171 82.9591 124.171 82.9591C124.171 82.9591 120.065 78.2559 118.496 79.8584C117.654 80.7193 121.205 85.2441 121.205 85.2441C121.205 85.2441 119.11 84.4105 119.06 86.0531C119.045 86.5541 119.333 87.1364 119.742 87.7036C119.557 88.2276 119.453 88.6242 119.453 88.6242C119.453 88.6242 119.704 87.1293 118.779 87.3278C118.138 87.4655 117.49 88.7707 116.937 90.3201C115.807 89.4221 114.471 88.5651 113.986 89.0702C113.086 90.0073 114.047 90.8846 114.047 90.8846C114.047 90.8846 110.839 90.2899 110.371 91.489C109.741 93.1045 113.722 94.0078 114.711 94.2055C114.108 94.1016 112.493 93.9017 112.907 94.8342C113.118 95.3098 114.111 95.5927 115.438 95.753L115.417 95.8523C115.417 95.8523 116.984 95.9611 118.727 95.9361C121.688 95.9704 124.66 95.7542 124.66 95.7542L124.633 95.7187C127.219 96.1337 130.965 96.0143 132.611 95.9332C137.416 96.0533 143.946 95.9209 144.643 94.3631C145.247 93.0103 142.886 93.3005 142.005 93.4512C143.451 93.1644 149.272 91.8542 148.35 89.5105C147.666 87.7713 142.975 88.634 142.975 88.634C142.975 88.634 144.381 87.3616 143.065 86.0019C142.397 85.3119 140.626 86.3743 139.043 87.5882C138.861 87.1566 138.433 87.1305 138.044 87.1067C137.676 87.0841 137.344 87.0638 137.292 86.7044C137.199 86.0697 138.392 85.7031 139.655 85.3151C141.09 84.874 142.616 84.405 142.449 83.4826C142.283 82.5683 141.059 83.0568 139.925 83.5094C138.957 83.896 138.054 84.2566 137.932 83.6936C137.866 83.3892 138.848 83.1367 140.043 82.8292C141.811 82.3743 144.048 81.7988 144.048 80.7575C144.048 79.6723 142.29 80.0553 140.731 80.395C139.783 80.6017 138.908 80.7922 138.546 80.6273C138.191 80.4652 139.281 79.8313 140.733 78.9857C143.197 77.5519 146.704 75.5105 145.984 74.1322C145.416 73.0449 142.901 74.4144 140.77 75.5748C139.399 76.3215 138.186 76.9815 137.754 76.845C137.219 76.6758 138.102 75.63 139.31 74.2006C140.594 72.6818 142.244 70.73 142.945 68.9368C144.353 65.3375 142.865 63.7005 140.436 66.6674C139.906 67.3142 139.305 68.0868 138.684 68.883L138.684 68.8832C136.46 71.739 133.997 74.9001 133.767 73.6718C133.665 73.1246 133.905 72.0285 134.161 70.8587C134.639 68.6701 135.175 66.2242 133.629 66.6348C130.284 67.5242 129.741 72.407 129.198 77.2992C129.063 78.5076 128.929 79.7166 128.752 80.8659C128.727 81.0329 128.565 80.6386 128.312 80.0214C127.634 78.3662 126.298 75.1082 125.164 76.7676Z" fill="white"/>
<path d="M125.527 80.8609L125.243 81.131L125.904 80.7491L125.527 80.8609ZM124.171 82.9591L123.874 83.2143L124.517 82.7738L124.171 82.9591ZM118.496 79.8584L118.214 79.5868L118.214 79.5869L118.496 79.8584ZM121.206 85.2441L121.059 85.606L122.41 86.1432L121.516 85.0044L121.206 85.2441ZM119.742 87.7036L120.113 87.8327L120.181 87.6418L120.062 87.477L119.742 87.7036ZM119.454 88.6242L119.066 88.5603L119.834 88.7217L119.454 88.6242ZM118.78 87.3279L118.863 87.7091H118.863L118.78 87.3279ZM116.937 90.3201L116.691 90.6243L117.123 90.9677L117.308 90.4504L116.937 90.3201ZM114.048 90.8847L113.975 91.268L115.322 91.5176L114.314 90.5976L114.048 90.8847ZM114.711 94.2055L114.644 94.5899L114.789 93.8233L114.711 94.2055ZM115.438 95.753L115.823 95.8345L115.913 95.4176L115.486 95.366L115.438 95.753ZM115.417 95.8523L115.032 95.7733L114.941 96.2101L115.39 96.2413L115.417 95.8523ZM118.727 95.9361L118.732 95.5461H118.722L118.727 95.9361ZM124.661 95.7542L124.689 96.1432L125.42 96.09L124.972 95.5155L124.661 95.7542ZM124.633 95.7187L124.696 95.3338L123.707 95.1751L124.323 95.9586L124.633 95.7187ZM132.611 95.9332L132.621 95.5434L132.606 95.543L132.592 95.5438L132.611 95.9332ZM144.643 94.3631L144.283 94.2049V94.2051L144.643 94.3631ZM142.006 93.4513L141.928 93.0689L142.072 93.8356L142.006 93.4513ZM148.351 89.5105L148.717 89.3689V89.3687L148.351 89.5105ZM142.976 88.634L142.71 88.346L141.694 89.2664L143.048 89.0173L142.976 88.634ZM139.043 87.5882L138.68 87.7383L138.878 88.2079L139.284 87.8967L139.043 87.5882ZM137.292 86.7044L136.903 86.7604V86.7606L137.292 86.7044ZM142.449 83.4827L142.836 83.4136V83.4134L142.449 83.4827ZM140.734 78.9858L140.933 79.3221L140.937 79.3194L140.942 79.3165L140.734 78.9858ZM140.734 78.9858L140.535 78.6494L140.53 78.6521L140.525 78.655L140.734 78.9858ZM138.685 68.883L138.994 69.1244L138.995 69.1229L138.996 69.1215L138.685 68.883ZM138.684 68.8832L138.376 68.6418L138.375 68.6434L138.373 68.6449L138.684 68.8832ZM129.198 77.2992L128.807 77.2565L128.805 77.278V77.2992H129.198ZM129.198 77.2992L129.589 77.3419L129.591 77.3207V77.2992H129.198ZM128.753 80.866L129.142 80.9248V80.9246L128.753 80.866ZM128.312 80.0214L127.939 80.1446L127.943 80.1565L127.948 80.1682L128.312 80.0214ZM128.312 80.0214L128.686 79.898L128.682 79.8861L128.677 79.8746L128.312 80.0214ZM125.904 80.7491C125.646 79.8945 125.445 79.0677 125.365 78.3789C125.325 78.0346 125.316 77.7366 125.341 77.493C125.366 77.2458 125.423 77.0837 125.49 76.9866L124.839 76.5488C124.671 76.7947 124.591 77.0999 124.558 77.4144C124.526 77.7327 124.54 78.0911 124.583 78.4684C124.671 79.2229 124.887 80.0996 125.15 80.9728L125.904 80.7491ZM124.344 80.7421C124.6 80.6713 124.892 80.7679 125.243 81.131L125.811 80.5908C125.378 80.1439 124.802 79.8057 124.132 79.9908L124.344 80.7421ZM124.171 82.9591L124.517 82.7738L124.517 82.774L124.517 82.7734C124.514 82.7671 124.51 82.7607 124.507 82.7543C124.5 82.7399 124.488 82.7181 124.474 82.6896C124.435 82.6102 124.397 82.5299 124.362 82.4488C124.273 82.245 124.17 81.9774 124.105 81.7062C124.039 81.4266 124.023 81.1867 124.067 81.0175C124.102 80.88 124.171 80.7899 124.344 80.7421L124.133 79.9908C123.662 80.1207 123.402 80.4436 123.304 80.8254C123.214 81.1756 123.262 81.5615 123.34 81.8856C123.419 82.2183 123.541 82.5322 123.64 82.759C123.69 82.8735 123.735 82.9682 123.768 83.0347C123.785 83.0683 123.799 83.0946 123.808 83.1133L123.82 83.1352L123.823 83.1414L123.824 83.1432L123.825 83.1439L123.825 83.1441L124.171 82.9591ZM118.779 80.1302C119.012 79.8919 119.366 79.8395 119.912 80.0339C120.456 80.2273 121.075 80.6325 121.676 81.1117C122.27 81.5861 122.82 82.112 123.224 82.5217C123.431 82.7317 123.633 82.9463 123.83 83.1654L123.863 83.2024L123.871 83.2116L123.873 83.2138L123.874 83.2143L124.171 82.9591L124.468 82.7036L124.468 82.7034C124.467 82.7022 124.466 82.7009 124.465 82.6995L124.455 82.6886C124.398 82.6243 124.341 82.5605 124.282 82.4973C124.164 82.3692 123.995 82.1884 123.787 81.9769C123.371 81.5547 122.797 81.005 122.169 80.504C121.547 80.0076 120.846 79.5374 120.178 79.2997C119.513 79.063 118.766 79.0236 118.214 79.5868L118.779 80.1302ZM121.206 85.2441L121.516 85.0046V85.0044L121.516 85.004C121.515 85.0032 121.515 85.0025 121.514 85.0017L121.507 84.9925L121.478 84.9557C121.31 84.7374 121.145 84.5171 120.983 84.2948C120.666 83.8613 120.254 83.2763 119.869 82.6672C119.481 82.0537 119.132 81.432 118.931 80.9213C118.83 80.6643 118.776 80.4576 118.763 80.3061C118.751 80.1482 118.788 80.1205 118.779 80.13L118.214 79.5869C117.994 79.8118 117.959 80.1138 117.979 80.3679C118 80.6286 118.085 80.9167 118.198 81.2049C118.426 81.7846 118.807 82.4556 119.202 83.0812C119.6 83.7106 120.023 84.3106 120.346 84.7525C120.512 84.9805 120.682 85.2064 120.854 85.4303L120.884 85.4695L120.892 85.4798L120.894 85.4824L120.895 85.4832L120.895 85.4834C120.895 85.4836 120.895 85.4836 121.206 85.2441ZM119.454 86.0648C119.463 85.7439 119.566 85.6107 119.654 85.5446C119.76 85.4654 119.926 85.4213 120.15 85.4225C120.368 85.4239 120.595 85.4681 120.776 85.5161C120.866 85.5404 120.956 85.5685 121.044 85.6004L121.057 85.6052L121.06 85.6062C121.06 85.6062 121.06 85.6062 121.06 85.6062L121.06 85.606C121.059 85.606 121.059 85.606 121.206 85.2441C121.352 84.8822 121.352 84.882 121.352 84.882L121.352 84.8818L121.351 84.8816L121.349 84.8806C121.346 84.8799 121.344 84.879 121.342 84.8781L121.32 84.8699C121.208 84.8287 121.095 84.793 120.98 84.7628C120.765 84.7057 120.466 84.6445 120.154 84.6425C119.848 84.6408 119.481 84.6963 119.179 84.9229C118.86 85.1626 118.682 85.5413 118.667 86.0415L119.454 86.0648ZM120.062 87.477C119.662 86.9209 119.443 86.4297 119.454 86.0648L118.667 86.0415C118.648 86.6787 119.006 87.3518 119.422 87.9302L120.062 87.477ZM119.454 88.6242L119.834 88.7217L119.835 88.7213L119.835 88.7186L119.838 88.7065L119.852 88.6574C119.93 88.3798 120.017 88.1048 120.113 87.8327L119.371 87.5745C119.292 87.7979 119.219 88.0231 119.151 88.25C119.124 88.3412 119.098 88.4328 119.073 88.5248L119.073 88.5259L119.073 88.5263V88.5265L119.454 88.6242ZM118.863 87.7091C118.93 87.6947 118.963 87.7007 118.971 87.703C118.978 87.7048 118.984 87.7087 118.989 87.714C119.013 87.7401 119.052 87.8136 119.074 87.9597C119.095 88.0958 119.094 88.2455 119.086 88.3684C119.082 88.4281 119.076 88.4782 119.072 88.5127L119.067 88.5511C119.067 88.554 119.066 88.5568 119.066 88.5597L119.066 88.561V88.5605L119.454 88.6242L119.842 88.6878L119.842 88.6876V88.6868L119.842 88.6853L119.843 88.6802L119.845 88.6638C119.858 88.5827 119.866 88.501 119.871 88.4191C119.881 88.2678 119.885 88.0564 119.852 87.8436C119.821 87.6408 119.75 87.3778 119.561 87.1795C119.345 86.9519 119.04 86.8731 118.696 86.9468L118.863 87.7091ZM117.308 90.4504C117.581 89.684 117.873 88.9961 118.166 88.4889C118.314 88.2352 118.454 88.0398 118.584 87.9049C118.717 87.766 118.812 87.7202 118.863 87.7091L118.696 86.9468C118.427 87.0046 118.2 87.1734 118.014 87.3665C117.825 87.5634 117.649 87.8169 117.484 88.1003C117.156 88.6675 116.846 89.4068 116.566 90.1899L117.308 90.4504ZM114.271 89.3391C114.278 89.3327 114.309 89.2981 114.45 89.3137C114.595 89.3297 114.795 89.3953 115.046 89.5183C115.542 89.7626 116.132 90.1801 116.691 90.6243L117.183 90.0157C116.613 89.5622 115.97 89.102 115.395 88.8196C115.109 88.6792 114.814 88.5692 114.537 88.5384C114.255 88.5072 113.938 88.5552 113.702 88.8013L114.271 89.3391ZM114.048 90.8847C114.314 90.5976 114.314 90.5978 114.314 90.5978L114.315 90.5982L114.315 90.5986L114.316 90.5992L114.316 90.5994L114.313 90.5965C114.281 90.5638 114.25 90.5294 114.222 90.4933C114.149 90.4018 114.09 90.3001 114.048 90.1914C114.002 90.0723 113.982 89.9453 114.004 89.8139C114.026 89.6854 114.094 89.524 114.271 89.3391L113.702 88.8013C113.429 89.085 113.28 89.3845 113.229 89.684C113.178 89.9808 113.229 90.249 113.312 90.4662C113.382 90.6483 113.48 90.819 113.601 90.9724C113.651 91.0357 113.704 91.0958 113.761 91.1526L113.774 91.1647L113.778 91.1688L113.78 91.1703C113.78 91.1706 113.78 91.1708 113.781 91.1709L113.781 91.1713C113.781 91.1713 113.781 91.1715 114.048 90.8847ZM110.738 91.6298C110.792 91.4925 110.941 91.3593 111.26 91.2612C111.572 91.1651 111.972 91.1276 112.386 91.127C112.795 91.1267 113.193 91.1618 113.492 91.1976C113.643 91.2158 113.794 91.2375 113.944 91.2626L113.969 91.2667L113.974 91.2678L113.975 91.268L114.048 90.8847L114.12 90.5013L114.119 90.5011H114.119C114.118 90.5009 114.117 90.5007 114.116 90.5005L114.108 90.4991C114.062 90.4912 114.016 90.4835 113.97 90.4761C113.843 90.4563 113.715 90.4386 113.586 90.4233C113.269 90.3851 112.836 90.3465 112.384 90.347C111.938 90.3478 111.448 90.3866 111.027 90.5161C110.612 90.6438 110.185 90.8856 110.005 91.3482L110.738 91.6298ZM114.789 93.8233C114.3 93.7254 113.092 93.4567 112.092 93.0219C111.588 92.8023 111.176 92.5572 110.93 92.2994C110.699 92.0568 110.652 91.8515 110.738 91.6296L110.005 91.3482C109.776 91.9342 109.989 92.4476 110.359 92.8351C110.713 93.2071 111.24 93.5031 111.776 93.7361C112.857 94.2061 114.134 94.4879 114.634 94.5879L114.789 93.8233ZM113.267 94.6772C113.201 94.5271 113.26 94.5477 113.22 94.5918C113.217 94.5947 113.229 94.5807 113.277 94.5627C113.324 94.545 113.391 94.529 113.478 94.5181C113.841 94.4725 114.344 94.5382 114.644 94.5899L114.779 93.8214C114.476 93.7691 113.87 93.6827 113.379 93.7443C113.146 93.7734 112.842 93.8461 112.641 94.0641C112.394 94.3295 112.407 94.6751 112.547 94.9912L113.267 94.6772ZM115.486 95.366C114.834 95.287 114.285 95.1803 113.882 95.043C113.681 94.9744 113.53 94.9028 113.425 94.8324C113.319 94.7613 113.28 94.7059 113.267 94.6772L112.547 94.9912C112.64 95.2002 112.805 95.3585 112.985 95.4793C113.167 95.6007 113.387 95.699 113.627 95.7805C114.105 95.9437 114.717 96.0586 115.391 96.1401L115.486 95.366ZM115.417 95.8523L115.803 95.9313V95.9311L115.803 95.9299L115.804 95.9254L115.808 95.9071L115.823 95.8345L115.054 95.6717L115.038 95.7468C115.036 95.755 115.034 95.7632 115.033 95.7714L115.032 95.7727L115.032 95.7733L115.417 95.8523ZM118.722 95.5461C117.959 95.5554 117.196 95.5446 116.434 95.5138C116.193 95.5044 115.953 95.4929 115.712 95.4795C115.626 95.4746 115.559 95.4705 115.513 95.4678L115.462 95.4644L115.449 95.4635L115.446 95.4633H115.445L115.417 95.8523L115.39 96.2413H115.39L115.391 96.2415L115.395 96.2417L115.409 96.2427L115.463 96.2462L115.667 96.2583C115.843 96.2682 116.096 96.2811 116.403 96.2932C117.017 96.3176 117.852 96.3386 118.733 96.3261L118.722 95.5461ZM124.661 95.7542L124.632 95.3654H124.63C124.628 95.3656 124.626 95.3658 124.624 95.366L124.599 95.3677L124.501 95.3743C123.93 95.4116 123.358 95.443 122.787 95.4685C121.678 95.5181 120.202 95.5633 118.732 95.5461L118.723 96.3261C120.213 96.3435 121.705 96.2977 122.822 96.2477C123.4 96.2218 123.977 96.1901 124.554 96.1526L124.654 96.1458L124.68 96.1438L124.687 96.1434L124.689 96.1432H124.689L124.661 95.7542ZM124.323 95.9586L124.343 95.9845L124.348 95.9909L124.349 95.9925L124.35 95.9929L124.35 95.9931L124.661 95.7542L124.972 95.5155V95.5153L124.971 95.5147L124.97 95.513L124.964 95.506L124.943 95.4791L124.323 95.9586ZM132.592 95.5438C130.943 95.6249 127.236 95.7413 124.696 95.3338L124.57 96.1038C127.202 96.5262 130.988 96.4036 132.631 96.3228L132.592 95.5438ZM144.283 94.2051C144.241 94.2983 144.138 94.4183 143.92 94.5489C143.704 94.6778 143.408 94.7989 143.034 94.9085C142.284 95.1275 141.282 95.2835 140.132 95.3892C137.834 95.5998 135.019 95.6033 132.621 95.5434L132.601 96.3232C135.008 96.3833 137.86 96.3807 140.204 96.1658C141.374 96.0584 142.435 95.8967 143.256 95.6567C143.666 95.5366 144.032 95.3927 144.326 95.2166C144.617 95.0423 144.87 94.8172 145.002 94.521L144.283 94.2051ZM142.072 93.8356C142.511 93.7603 143.271 93.6605 143.832 93.7303C144.126 93.7668 144.27 93.8393 144.321 93.8937C144.336 93.9099 144.345 93.9253 144.347 93.9561C144.35 93.9951 144.342 94.0737 144.283 94.2049L145.002 94.521C145.095 94.3141 145.146 94.1061 145.132 93.9025C145.119 93.7015 145.037 93.511 144.898 93.3637C144.649 93.0967 144.262 92.9975 143.93 92.9563C143.242 92.8707 142.381 92.9912 141.939 93.0669L142.072 93.8356ZM147.984 89.6523C148.143 90.0546 148.036 90.4209 147.666 90.8057C147.282 91.2056 146.654 91.573 145.909 91.8946C144.428 92.5336 142.646 92.9265 141.928 93.0689L142.083 93.8336C142.811 93.6892 144.662 93.2836 146.223 92.6098C146.999 92.275 147.743 91.8573 148.236 91.3435C148.744 90.8145 149.02 90.1382 148.717 89.3689L147.984 89.6523ZM142.976 88.634L143.048 89.0173L143.05 89.017L143.059 89.0154L143.095 89.009C143.128 89.0035 143.177 88.9953 143.24 88.9856C143.365 88.9661 143.546 88.9397 143.766 88.9136C144.207 88.861 144.798 88.8093 145.406 88.8101C146.019 88.8108 146.624 88.8654 147.106 89.0125C147.595 89.1618 147.877 89.3804 147.984 89.6523L148.717 89.3687C148.482 88.7711 147.921 88.4452 147.338 88.2672C146.748 88.0868 146.053 88.031 145.407 88.0301C144.757 88.0291 144.132 88.0843 143.672 88.1391C143.487 88.1611 143.302 88.1864 143.118 88.2149C143.051 88.2254 142.998 88.2342 142.962 88.2403L142.92 88.2477L142.909 88.2496C142.908 88.2497 142.907 88.2499 142.906 88.2502L142.905 88.2504H142.904L142.976 88.634ZM142.781 86.2719C143.062 86.5627 143.18 86.8279 143.218 87.0521C143.257 87.2793 143.221 87.4948 143.146 87.6894C143.071 87.886 142.96 88.0531 142.865 88.1732C142.817 88.2341 142.765 88.292 142.71 88.3465L142.709 88.3471L142.71 88.3467L142.71 88.3463L142.71 88.3462C142.71 88.3462 142.71 88.346 142.976 88.634C143.241 88.922 143.241 88.9218 143.241 88.9216L143.242 88.9214L143.242 88.9206C143.329 88.8374 143.41 88.7485 143.484 88.6546C143.612 88.4936 143.77 88.2578 143.882 87.9661C143.994 87.6728 144.062 87.3152 143.994 86.9213C143.926 86.5247 143.725 86.121 143.349 85.7318L142.781 86.2719ZM139.284 87.8967C140.069 87.2947 140.879 86.7475 141.562 86.4353C141.905 86.2784 142.19 86.1933 142.407 86.177C142.619 86.1608 142.722 86.2109 142.781 86.2719L143.349 85.7318C143.074 85.4481 142.705 85.372 142.348 85.3991C141.996 85.4256 141.614 85.5528 141.233 85.7269C140.467 86.0769 139.601 86.6678 138.803 87.2797L139.284 87.8967ZM138.02 87.496C138.227 87.5086 138.373 87.5203 138.489 87.5617C138.581 87.5942 138.639 87.6397 138.68 87.7383L139.406 87.438C139.266 87.1052 139.019 86.9217 138.754 86.8275C138.514 86.7417 138.251 86.7284 138.069 86.7173L138.02 87.496ZM136.903 86.7606C136.925 86.9098 136.98 87.0486 137.078 87.165C137.174 87.2803 137.293 87.3507 137.406 87.3949C137.612 87.4749 137.857 87.4858 138.02 87.496L138.069 86.7173C137.989 86.7135 137.909 86.7071 137.829 86.698C137.761 86.6894 137.719 86.6787 137.694 86.669C137.672 86.6602 137.675 86.6569 137.683 86.6666C137.692 86.6773 137.686 86.6789 137.682 86.6485L136.903 86.7606ZM139.539 84.9426C138.919 85.1331 138.27 85.3315 137.79 85.5682C137.55 85.6866 137.32 85.8299 137.153 86.0124C136.978 86.2047 136.859 86.4586 136.903 86.7604L137.682 86.6487C137.679 86.6331 137.675 86.603 137.736 86.536C137.807 86.4591 137.936 86.3675 138.141 86.2663C138.55 86.0641 139.129 85.8851 139.772 85.6875L139.539 84.9426ZM142.062 83.5519C142.081 83.658 142.058 83.75 141.975 83.8563C141.881 83.9754 141.716 84.1033 141.467 84.2357C140.968 84.5017 140.269 84.7184 139.539 84.9426L139.772 85.6875C140.477 85.4707 141.259 85.2322 141.839 84.9229C142.131 84.7677 142.405 84.578 142.595 84.3358C142.796 84.0809 142.901 83.7687 142.836 83.4136L142.062 83.5519ZM140.073 83.8711C140.656 83.6381 141.195 83.4261 141.604 83.3698C141.808 83.3417 141.919 83.3623 141.971 83.3877C141.995 83.3996 142.038 83.4232 142.062 83.5519L142.836 83.4134C142.776 83.0851 142.604 82.8269 142.317 82.6873C142.058 82.5611 141.761 82.5607 141.496 82.5972C140.969 82.6697 140.329 82.9281 139.779 83.1476L140.073 83.8711ZM137.548 83.7755C137.606 84.0458 137.78 84.2412 138.033 84.326C138.247 84.3982 138.483 84.3787 138.685 84.3409C139.093 84.264 139.603 84.0587 140.073 83.8711L139.779 83.1476C139.28 83.3467 138.853 83.5152 138.538 83.5745C138.378 83.6047 138.305 83.594 138.285 83.5874C138.282 83.5866 138.295 83.5909 138.309 83.6061C138.322 83.6209 138.32 83.6287 138.317 83.6117L137.548 83.7755ZM139.944 82.4519C139.354 82.6036 138.788 82.7487 138.38 82.8963C138.179 82.9688 137.985 83.0527 137.839 83.1553C137.715 83.242 137.477 83.4517 137.548 83.7755L138.317 83.6117C138.354 83.7835 138.214 83.8473 138.293 83.7917C138.35 83.7516 138.463 83.6962 138.649 83.6291C139.014 83.4975 139.537 83.3625 140.142 83.2067L139.944 82.4519ZM143.655 80.7575C143.655 80.8646 143.601 80.998 143.411 81.1641C143.219 81.3316 142.928 81.496 142.554 81.6547C141.807 81.9716 140.837 82.2222 139.944 82.4519L140.142 83.2067C141.018 82.9813 142.051 82.7167 142.863 82.3717C143.27 82.1996 143.648 81.9964 143.931 81.7491C144.216 81.5001 144.442 81.1711 144.442 80.7575H143.655ZM140.816 80.7759C141.611 80.6027 142.393 80.4342 142.976 80.4319C143.271 80.4307 143.452 80.4736 143.548 80.5306C143.609 80.5664 143.655 80.6132 143.655 80.7575H144.442C144.442 80.3591 144.267 80.0468 143.95 79.8599C143.668 79.694 143.313 79.6505 142.973 79.6519C142.287 79.6546 141.412 79.8475 140.647 80.0142L140.816 80.7759ZM138.383 80.9816C138.546 81.0561 138.732 81.0771 138.902 81.0797C139.078 81.082 139.273 81.0645 139.474 81.0368C139.875 80.9814 140.347 80.8782 140.816 80.7759L140.647 80.0142C140.168 80.1185 139.729 80.2139 139.365 80.2642C139.184 80.2893 139.033 80.3014 138.913 80.2997C138.788 80.2979 138.729 80.281 138.711 80.273L138.383 80.9816ZM140.535 78.6494C139.815 79.0684 139.162 79.4477 138.737 79.7433C138.532 79.8853 138.339 80.0353 138.224 80.1819C138.173 80.2476 138.079 80.3825 138.086 80.5602C138.095 80.7915 138.257 80.9243 138.383 80.9816L138.711 80.273C138.748 80.2897 138.866 80.3671 138.872 80.5296C138.877 80.6382 138.822 80.6906 138.845 80.6608C138.88 80.6165 138.983 80.5247 139.188 80.3822C139.581 80.109 140.2 79.7486 140.933 79.3221L140.535 78.6494ZM145.635 74.3116C145.721 74.4762 145.715 74.7043 145.484 75.0585C145.253 75.4124 144.845 75.8102 144.308 76.2327C143.239 77.0742 141.773 77.9287 140.535 78.6494L140.933 79.3219C142.158 78.609 143.677 77.7259 144.797 76.8435C145.356 76.4042 145.843 75.9436 146.144 75.4824C146.445 75.0212 146.608 74.4774 146.334 73.9528L145.635 74.3116ZM140.96 75.9167C142.034 75.3317 143.167 74.716 144.099 74.3767C144.569 74.2061 144.948 74.1207 145.223 74.1258C145.482 74.1305 145.582 74.2088 145.635 74.3116L146.334 73.953C146.104 73.5119 145.676 73.3538 145.237 73.3458C144.815 73.3382 144.325 73.4638 143.828 73.6445C142.828 74.0084 141.638 74.6575 140.581 75.233L140.96 75.9167ZM137.635 77.2167C137.86 77.2877 138.114 77.2423 138.321 77.1847C138.546 77.1223 138.803 77.0196 139.075 76.8954C139.619 76.6471 140.278 76.2877 140.96 75.9167L140.581 75.233C139.891 75.6086 139.259 75.9527 138.746 76.1869C138.489 76.3041 138.276 76.3874 138.109 76.4336C137.925 76.4849 137.865 76.4707 137.874 76.4734L137.635 77.2167ZM139.009 73.9503C138.412 74.6566 137.871 75.2964 137.55 75.7815C137.395 76.0157 137.257 76.2638 137.215 76.4917C137.193 76.6118 137.19 76.7684 137.268 76.9201C137.352 77.0812 137.494 77.1723 137.635 77.2167L137.874 76.4734C137.881 76.4755 137.933 76.497 137.968 76.5629C137.997 76.6192 137.984 76.6553 137.989 76.6313C138 76.5709 138.058 76.4363 138.208 76.2093C138.497 75.772 139.001 75.1741 139.612 74.4512L139.009 73.9503ZM142.579 68.7958C141.906 70.5161 140.307 72.4152 139.009 73.9503L139.612 74.4512C140.882 72.9486 142.582 70.944 143.312 69.0778L142.579 68.7958ZM140.742 66.9131C141.332 66.1926 141.834 65.7907 142.214 65.6191C142.584 65.4518 142.761 65.5263 142.854 65.6175C142.986 65.7468 143.115 66.0588 143.096 66.6335C143.077 67.1906 142.92 67.9234 142.579 68.7958L143.312 69.0778C143.675 68.1506 143.86 67.3291 143.882 66.6594C143.904 66.0077 143.773 65.421 143.406 65.062C143 64.665 142.436 64.6614 141.888 64.9093C141.35 65.1525 140.756 65.6587 140.131 66.4215L140.742 66.9131ZM138.996 69.1215C139.617 68.3241 140.216 67.5556 140.742 66.9131L140.131 66.4215C139.598 67.073 138.993 67.8495 138.373 68.6447L138.996 69.1215ZM138.993 69.1246L138.994 69.1244L138.376 68.6416L138.376 68.6418L138.993 69.1246ZM133.381 73.743C133.421 73.96 133.543 74.2283 133.849 74.312C134.103 74.3812 134.349 74.2759 134.515 74.1823C134.872 73.9807 135.307 73.5689 135.768 73.0732C136.704 72.0642 137.888 70.5442 138.996 69.1217L138.373 68.6449C137.257 70.078 136.097 71.5664 135.189 72.5449C134.727 73.0429 134.364 73.3696 134.125 73.5045C133.993 73.579 133.991 73.5417 134.058 73.5599C134.177 73.5923 134.171 73.6907 134.154 73.6006L133.381 73.743ZM133.776 70.7761C133.649 71.3579 133.523 71.9355 133.441 72.4369C133.362 72.924 133.316 73.3959 133.381 73.743L134.154 73.6006C134.117 73.4008 134.139 73.0509 134.218 72.5607C134.295 72.0845 134.417 71.5294 134.545 70.9414L133.776 70.7761ZM133.732 67.0116C133.883 66.9712 133.974 66.9759 134.023 66.9876C134.063 66.9962 134.097 67.019 134.12 67.0516C134.196 67.1483 134.261 67.3694 134.261 67.7719C134.261 68.554 134.02 69.665 133.776 70.7761L134.545 70.9414C134.781 69.8639 135.047 68.6576 135.048 67.7723C135.048 67.3409 134.988 66.8907 134.744 66.576C134.611 66.4025 134.422 66.28 134.209 66.2296C133.993 66.1778 133.763 66.1959 133.528 66.2581L133.732 67.0116ZM129.589 77.3419C129.862 74.8841 130.131 72.4829 130.738 70.584C131.347 68.6818 132.257 67.4037 133.732 67.0116L133.528 66.2581C131.657 66.7556 130.623 68.3635 129.988 70.3482C129.352 72.3361 129.078 74.8223 128.807 77.2565L129.589 77.3419ZM129.142 80.9246C129.32 79.766 129.455 78.5488 129.589 77.3419L128.807 77.2565C128.673 78.4665 128.539 79.6673 128.364 80.8073L129.142 80.9246ZM127.948 80.1682C128.072 80.4707 128.181 80.7382 128.263 80.9069C128.285 80.9504 128.307 80.9931 128.329 81.0313C128.348 81.0635 128.381 81.1163 128.427 81.1633C128.449 81.1856 128.497 81.2308 128.571 81.2618C128.627 81.2858 128.688 81.2968 128.75 81.2939C128.811 81.2911 128.871 81.2744 128.925 81.2452C129.04 81.1834 129.089 81.0879 129.108 81.0448C129.129 80.9962 129.137 80.9519 129.142 80.9248L128.364 80.8071C128.365 80.8008 128.369 80.7731 128.385 80.7369C128.418 80.6616 128.476 80.5995 128.548 80.5606C128.599 80.5334 128.654 80.5178 128.711 80.5149C128.768 80.512 128.825 80.522 128.878 80.544C128.942 80.5711 128.98 80.6086 128.991 80.6191C129.014 80.6429 129.02 80.6577 129.009 80.6384C128.996 80.6155 128.984 80.5922 128.972 80.5684C128.904 80.4276 128.806 80.1891 128.677 79.8746L127.948 80.1682ZM125.49 76.9866C125.608 76.8144 125.702 76.7444 125.761 76.7177C125.809 76.6959 125.853 76.6928 125.915 76.713C126.077 76.7671 126.309 76.9714 126.585 77.3714C127.116 78.1438 127.604 79.3288 127.948 80.1682L128.677 79.8746C128.343 79.0587 127.823 77.7871 127.234 76.9316C126.949 76.5178 126.592 76.1154 126.164 75.9734C125.93 75.8958 125.679 75.8974 125.434 76.0087C125.2 76.1148 125.005 76.3061 124.839 76.5488L125.49 76.9866Z" fill="#F0F0F0"/>
<path fill-rule="evenodd" clip-rule="evenodd" d="M61.8744 86.5213C63.5493 88.3309 62.8881 97.6241 62.8881 97.6241C62.8881 97.6241 58.999 96.8331 55.5504 95.7134C53.6054 95.8421 39.6275 96.6838 38.5905 94.3635C37.9857 93.0107 40.3467 93.3009 41.2278 93.4516C39.7823 93.1648 33.961 91.8546 34.8825 89.5109C35.5669 87.7717 40.2576 88.6344 40.2576 88.6344C40.2576 88.6344 38.8524 87.362 40.1683 86.0022C41.484 84.6427 47.0859 90.0881 47.0859 90.0881C47.0859 90.0881 44.8142 85.8605 47.4342 87.0806C47.8155 87.2582 48.2791 87.5878 48.7902 88.0183C49.3543 88.1691 49.8504 88.4347 49.8504 88.4347C49.8504 88.4347 45.107 84.3639 46.7232 82.8081C47.5915 81.9735 52.155 85.4945 52.155 85.4945C52.155 85.4945 51.3142 83.4169 52.971 83.3674C54.6277 83.3179 57.1651 86.5067 57.1651 86.5067C57.1651 86.5067 60.1994 84.7111 61.8744 86.5213Z" fill="white"/>
<path d="M62.8875 97.6237L63.2798 97.6512L63.2482 98.0953L62.8084 98.0057L62.8875 97.6237ZM55.5498 95.7131L55.5237 95.3239L55.5998 95.3188L55.6724 95.3424L55.5498 95.7131ZM38.5899 94.3632L38.9494 94.205V94.2052L38.5899 94.3632ZM41.2272 93.4513L41.3043 93.0689L41.1603 93.8357L41.2272 93.4513ZM34.8819 89.5106L34.5155 89.369V89.3688L34.8819 89.5106ZM40.257 88.6341L40.5221 88.346L41.5385 89.2664L40.1852 89.0174L40.257 88.6341ZM47.0853 90.0878L47.4324 89.9045L46.81 90.3662L47.0853 90.0878ZM47.4336 87.0803L47.6008 86.7273H47.601L47.4336 87.0803ZM48.7896 88.018L48.6871 88.3946L48.6022 88.3718L48.5349 88.3152L48.7896 88.018ZM49.8498 88.4344L50.1073 88.1395L49.663 88.7776L49.8498 88.4344ZM46.7226 82.8078L46.4487 82.528L46.4489 82.5278L46.7226 82.8078ZM52.1544 85.4942L52.5194 85.3489L53.0612 86.6881L51.9129 85.8019L52.1544 85.4942ZM57.1645 86.5064L57.366 86.8414L57.0695 87.0169L56.8557 86.748L57.1645 86.5064ZM62.8875 97.6237L62.4951 97.5962V97.5949L62.4955 97.5902L62.4967 97.5707L62.5018 97.4939C62.5063 97.4264 62.5124 97.3266 62.5199 97.1986C62.5345 96.943 62.5537 96.5752 62.5714 96.1281C62.6072 95.2332 62.6373 94.0227 62.6155 92.7577C62.5935 91.4904 62.5197 90.179 62.35 89.0783C62.265 88.5278 62.1576 88.0393 62.0247 87.6399C61.8898 87.2343 61.7383 86.9516 61.584 86.7847L62.1635 86.2574C62.4279 86.5429 62.6224 86.9465 62.7716 87.3954C62.9233 87.8505 63.0389 88.3852 63.1276 88.9603C63.305 90.111 63.3797 91.4621 63.4019 92.7443C63.4242 94.0287 63.3935 95.2547 63.3575 96.1589C63.3392 96.6208 63.3157 97.0826 63.2869 97.544L63.2816 97.6234L63.2802 97.6438L63.2798 97.6493V97.651L62.8875 97.6237ZM55.6724 95.3424C57.3828 95.8978 59.2061 96.3728 60.6046 96.7094C61.3031 96.8775 61.8943 97.0107 62.3106 97.1019C62.5146 97.1465 62.7189 97.1901 62.9233 97.2328L62.9557 97.2396C62.9585 97.24 62.9612 97.2405 62.964 97.2412L62.9659 97.2415L62.9663 97.2417L62.8875 97.6237L62.8082 98.0057L62.8074 98.0056L62.8053 98.0052L62.7964 98.0034C62.7851 98.0011 62.7738 97.9988 62.7626 97.9964L62.6318 97.9691C62.5177 97.9451 62.3514 97.9096 62.1409 97.8636C61.5656 97.7373 60.9917 97.6052 60.4191 97.4674C59.0108 97.1284 57.1654 96.6482 55.4275 96.0836L55.6724 95.3424ZM38.9494 94.2052C39.0149 94.3515 39.2234 94.5424 39.6867 94.7321C40.1325 94.9148 40.7381 95.0657 41.4685 95.1862C42.9262 95.4269 44.8085 95.5349 46.7358 95.5665C50.5864 95.6299 54.5539 95.3881 55.5237 95.3239L55.576 96.1022C54.6007 96.1667 50.6068 96.4103 46.7228 96.3465C44.7831 96.3145 42.8548 96.2059 41.3393 95.9557C40.5829 95.8309 39.9111 95.6681 39.3864 95.453C38.8792 95.2453 38.4241 94.9548 38.2302 94.5211L38.9494 94.2052ZM41.1603 93.8357C40.7214 93.7604 39.9618 93.6606 39.4004 93.7304C39.1067 93.7668 38.9622 93.8394 38.9114 93.8938C38.895 93.9105 38.8859 93.9329 38.8859 93.9562C38.8831 93.9952 38.8908 94.0738 38.9494 94.205L38.2302 94.5211C38.1378 94.3142 38.0868 94.1061 38.101 93.9026C38.1133 93.7015 38.1959 93.5111 38.3344 93.3638C38.5838 93.0968 38.9712 92.9976 39.3024 92.9564C39.9905 92.8708 40.8519 92.9913 41.2941 93.067L41.1603 93.8357ZM35.2485 89.6523C35.0902 90.0546 35.1966 90.421 35.5661 90.8058C35.9502 91.2057 36.5788 91.5731 37.3239 91.8946C38.8045 92.5337 40.587 92.9266 41.3043 93.0689L41.1499 93.8337C40.4218 93.6892 38.571 93.2836 37.0099 92.6099C36.234 92.2751 35.4898 91.8574 34.9964 91.3436C34.4884 90.8145 34.2129 90.1383 34.5155 89.369L35.2485 89.6523ZM40.257 88.6341L40.1852 89.0174H40.1851C40.1692 89.0147 40.1533 89.0119 40.1375 89.009C40.1046 89.0036 40.0558 88.9954 39.9931 88.9856C39.8674 88.9661 39.6863 88.9398 39.4664 88.9137C39.0255 88.861 38.4347 88.8094 37.8266 88.8101C37.2138 88.8109 36.6081 88.8655 36.1262 89.0125C35.6373 89.1619 35.3555 89.3805 35.2485 89.6523L34.5155 89.3688C34.7508 88.7711 35.3117 88.4453 35.8948 88.2673C36.485 88.0869 37.1802 88.0311 37.8256 88.0301C38.4758 88.0292 39.1004 88.0843 39.5602 88.1391C39.7457 88.1612 39.9307 88.1865 40.1152 88.215C40.1819 88.2255 40.2346 88.2343 40.2708 88.2403L40.3129 88.2478L40.3241 88.2497C40.3252 88.2498 40.3262 88.25 40.3272 88.2503L40.3282 88.2505H40.3284L40.257 88.6341ZM40.4515 86.272C40.1701 86.5628 40.0527 86.828 40.0143 87.0522C39.9752 87.2794 40.0122 87.4949 40.0867 87.6895C40.1618 87.886 40.2724 88.0531 40.3676 88.1733C40.4138 88.2318 40.4634 88.2876 40.5162 88.3404L40.5229 88.3466L40.5235 88.3472L40.5231 88.3468L40.5227 88.3464L40.5225 88.3462C40.5223 88.3462 40.5221 88.346 40.257 88.6341C40.1692 88.7306 40.0806 88.8264 39.9913 88.9217L39.9911 88.9215L39.9904 88.9207C39.9896 88.9202 39.989 88.9196 39.9884 88.9189L39.9831 88.9141C39.9596 88.8916 39.9365 88.8686 39.9138 88.8452C39.8558 88.7843 39.8006 88.7207 39.7485 88.6547C39.6212 88.4937 39.4627 88.2579 39.3512 87.9662C39.2389 87.6729 39.1712 87.3153 39.2387 86.9214C39.3069 86.5247 39.5073 86.1211 39.884 85.7319L40.4515 86.272ZM47.0853 90.0878L46.81 90.3662H46.8098C46.8081 90.3646 46.8081 90.3646 46.8064 90.3629L46.7948 90.3518L46.749 90.3077C46.7085 90.2689 46.6485 90.212 46.5716 90.1396C46.4176 89.9952 46.196 89.7898 45.9256 89.5474C45.3843 89.0623 44.6516 88.4314 43.8804 87.8443C43.1046 87.2536 42.3096 86.7225 41.6412 86.422C41.3057 86.271 41.028 86.1905 40.8162 86.1763C40.6106 86.1624 40.5099 86.2118 40.4515 86.272L39.884 85.7319C40.1544 85.4524 40.5166 85.3744 40.8693 85.398C41.2156 85.4214 41.5916 85.5433 41.9661 85.7116C42.7181 86.0497 43.5705 86.625 44.3595 87.2258C45.1532 87.8301 45.9031 88.4757 46.4532 88.9689C46.7377 89.2239 47.0184 89.4831 47.2951 89.7463L47.3435 89.7927L47.3561 89.8048L47.3593 89.8081L47.3602 89.8089L47.3604 89.8091C47.3606 89.8093 47.3606 89.8093 47.0853 90.0878ZM47.2664 87.4332C46.96 87.2905 46.7696 87.2497 46.664 87.2492C46.6155 87.249 46.597 87.2572 46.5956 87.2577C46.5948 87.2581 46.596 87.2577 46.5978 87.2562C46.5993 87.2548 46.5995 87.2542 46.5984 87.256C46.5895 87.2689 46.561 87.3301 46.5653 87.4851C46.5692 87.6316 46.6011 87.816 46.6574 88.027C46.7693 88.4482 46.961 88.9156 47.1297 89.2857C47.2183 89.4799 47.3117 89.6718 47.4098 89.8614L47.4271 89.8943L47.4312 89.9023L47.4322 89.9041C47.4323 89.9042 47.4324 89.9043 47.4324 89.9045L47.0853 90.0878C46.7382 90.2713 46.7382 90.2711 46.738 90.2711V90.2707L46.7374 90.2699L46.736 90.2672C46.7342 90.2638 46.7324 90.2605 46.7307 90.257L46.711 90.2198C46.6061 90.0182 46.5066 89.8139 46.4129 89.6069C46.2375 89.2226 46.0251 88.7091 45.8966 88.2259C45.8325 87.9849 45.7851 87.7361 45.7788 87.5064C45.7727 87.285 45.8028 87.0269 45.9495 86.8149C46.1149 86.5758 46.3763 86.4674 46.669 86.4692C46.9406 86.4709 47.2523 86.5649 47.6008 86.7273L47.2664 87.4332ZM48.5349 88.3152C48.0313 87.8911 47.5996 87.5885 47.2664 87.4332L47.601 86.7273C48.0301 86.9272 48.5255 87.2841 49.0443 87.7207L48.5349 88.3152ZM49.8498 88.4344L49.663 88.7776L49.6632 88.7778L49.6628 88.7776L49.6599 88.776L49.6461 88.7688C49.556 88.7232 49.4647 88.6801 49.3721 88.6395C49.1885 88.559 48.9434 88.463 48.6871 88.3946L48.8919 87.6415C49.1999 87.7238 49.4848 87.8359 49.6901 87.926C49.7978 87.9731 49.904 88.0233 50.0087 88.0765C50.0178 88.0811 50.0268 88.0857 50.0357 88.0906L50.0363 88.091L50.0365 88.0912L49.8498 88.4344ZM46.9968 83.0877C46.7565 83.3189 46.7036 83.6701 46.8996 84.2116C47.0947 84.7502 47.5034 85.3647 47.9866 85.96C48.4651 86.5497 48.9955 87.0951 49.4087 87.4949C49.6205 87.7002 49.837 87.9008 50.0579 88.0964L50.0953 88.1292L50.1045 88.1372L50.1067 88.1391L50.1073 88.1395L49.8498 88.4344L49.5922 88.7292L49.592 88.7288L49.591 88.7282L49.5881 88.7255L49.5771 88.7161C49.5123 88.6595 49.448 88.6024 49.3841 88.5447C49.2549 88.4277 49.0726 88.2596 48.8592 88.0531C48.4334 87.6411 47.879 87.0717 47.3738 86.4491C46.8733 85.8323 46.3989 85.1373 46.1592 84.4751C45.9204 83.8158 45.8807 83.0748 46.4487 82.528L46.9968 83.0877ZM52.1544 85.4942L51.9129 85.8019H51.9127L51.9123 85.8015C51.9115 85.8009 51.9107 85.8003 51.9099 85.7997L51.9007 85.7927L51.8635 85.7642C51.6435 85.5976 51.4213 85.4338 51.197 85.2728C50.7598 84.9589 50.17 84.5502 49.5554 84.1686C48.9369 83.7844 48.3099 83.4381 47.7947 83.2388C47.5355 83.1386 47.327 83.0845 47.1742 83.0725C47.0149 83.06 46.987 83.0972 46.9966 83.0879L46.4489 82.5278C46.6756 82.31 46.9803 82.2747 47.2365 82.295C47.4995 82.3157 47.79 82.3997 48.0806 82.5122C48.6653 82.7384 49.342 83.1157 49.973 83.5075C50.6078 83.9018 51.2129 84.3212 51.6586 84.6412C51.8885 84.8065 52.1164 84.9745 52.3422 85.1453L52.3817 85.1755L52.3922 85.1835L52.3949 85.1855L52.3955 85.1861L52.3957 85.1863C52.3959 85.1863 52.3959 85.1865 52.1544 85.4942ZM52.9822 83.7569C52.6584 83.7665 52.5241 83.8686 52.4574 83.9558C52.3776 84.0603 52.3332 84.2251 52.3343 84.4468C52.3357 84.6635 52.3804 84.8891 52.4287 85.0677C52.4532 85.1576 52.4816 85.2465 52.5137 85.3341L52.5186 85.3471L52.5196 85.3495C52.5196 85.3497 52.5196 85.3497 52.5196 85.3495V85.3493L52.5194 85.3489L52.1544 85.4942C51.7894 85.6394 51.7892 85.6392 51.7892 85.639L51.789 85.6389L51.7888 85.6381L51.7878 85.6359C51.787 85.6337 51.7862 85.6315 51.7852 85.6293L51.777 85.6077C51.7355 85.4969 51.6994 85.3842 51.669 85.2699C51.6116 85.0574 51.5496 84.7604 51.5477 84.4515C51.5459 84.1477 51.6019 83.7836 51.8305 83.4847C52.0722 83.1686 52.4541 82.9923 52.9586 82.9773L52.9822 83.7569ZM57.1645 86.5064L56.8557 86.748L56.8555 86.7478C56.8551 86.7474 56.8547 86.7469 56.8543 86.7465L56.8496 86.7404L56.8293 86.7154C56.7045 86.5634 56.5768 86.4136 56.4464 86.2662C56.12 85.8961 55.7768 85.5407 55.4181 85.2013C55.007 84.8148 54.5559 84.4402 54.1161 84.1674C53.666 83.8881 53.2785 83.7479 52.9822 83.7569L52.9586 82.9773C53.4907 82.9613 54.0416 83.2012 54.5333 83.5061C55.0352 83.8174 55.529 84.2306 55.9593 84.6352C56.3355 84.9911 56.6954 85.3637 57.0378 85.7518C57.1455 85.8733 57.2513 85.9964 57.3552 86.1211C57.3928 86.1659 57.4217 86.2014 57.4418 86.2258L57.4646 86.2543C57.4674 86.2573 57.4701 86.2606 57.4724 86.264L57.473 86.2646V86.2648C57.4732 86.2648 57.4732 86.265 57.1645 86.5064ZM61.584 86.7847C60.8911 86.0359 59.8981 86.0035 58.9799 86.2149C58.5287 86.3186 58.1226 86.4762 57.8276 86.6092C57.6799 86.6758 57.5348 86.7481 57.3928 86.826L57.371 86.8385C57.3694 86.8393 57.3679 86.8402 57.3664 86.8412L57.3657 86.8416L57.366 86.8414L57.1645 86.5064C56.9629 86.1716 56.9629 86.1716 56.9631 86.1714L56.9635 86.1712L56.9643 86.1708L56.9668 86.1693L56.9753 86.1644C56.9823 86.1603 56.9924 86.1544 57.0052 86.1474C57.0305 86.1332 57.0669 86.1131 57.1131 86.0887C57.2056 86.0398 57.3381 85.9731 57.5019 85.8992C57.8282 85.7521 58.2853 85.5739 58.8021 85.455C59.8197 85.221 61.1816 85.196 62.1635 86.2574L61.584 86.7847Z" fill="#F0F0F0"/>
<path fill-rule="evenodd" clip-rule="evenodd" d="M63.7927 94.136C63.7927 94.136 43.8311 78.3317 43.8311 63.898C43.8311 53.2695 52.769 44.6548 63.7927 44.6548C74.8165 44.6548 83.7544 53.2695 83.7544 63.898C83.7544 78.3317 63.7927 94.136 63.7927 94.136Z" fill="#1890FF" stroke="#1890FF" stroke-width="12.8051" stroke-linecap="round" stroke-linejoin="round"/>
<path d="M63.7876 62.1284C62.456 62.1284 61.3857 63.173 61.3857 64.4515C61.3857 65.7301 62.4645 66.7663 63.7961 66.7663C65.1277 66.7663 66.1982 65.7301 66.1982 64.4433C66.2066 63.173 65.1277 62.1284 63.7876 62.1284Z" stroke="white" stroke-width="21.7746" stroke-linecap="round" stroke-linejoin="round"/>
<path d="M97.0022 56.9459C97.0862 57.5896 97.3112 58.3657 97.6752 58.6292C98.0882 58.9283 98.2159 59.246 98.2159 59.246L98.6354 59.1176L99.137 58.9644C99.137 58.9644 99.1378 58.9137 99.1347 58.829C99.1309 58.7176 99.1219 58.6064 99.1077 58.4958C99.1077 58.4958 99.0122 58.292 99.1463 58.0937C99.2802 57.896 99.3418 57.5567 99.2476 57.3196C99.1536 57.0832 99.1341 56.5477 99.0452 56.5436C98.8301 56.5316 98.9776 57.2944 98.8588 57.402C98.752 57.5001 98.6605 57.4371 98.6442 57.4237C98.643 57.4229 98.6419 57.422 98.6409 57.421C98.1199 57.0352 97.7344 55.5107 97.3802 55.6236C97.2481 55.6656 96.9658 56.6718 97.0022 56.9459ZM118.181 72.7869C118.181 72.7869 117.737 73.5502 117.936 73.9903C118.134 74.4308 118.824 75.0179 119.002 75.2482C119.179 75.4781 119.781 76.0858 120.023 75.6948C120.265 75.3048 119.837 74.2674 119.541 73.8766C119.245 73.4847 119.217 72.8125 119.217 72.8125L118.181 72.7869Z" fill="#FFBB96"/>
<path d="M117.896 73.8633C117.896 73.8633 117.93 74.7041 117.971 74.9288C118.011 75.1538 118.051 75.085 118.206 74.9338C118.361 74.7829 118.359 74.3428 118.418 74.3137C118.476 74.2849 117.896 73.8633 117.896 73.8633Z" fill="#FFBB96"/>
<path d="M110.117 56.854C110.117 56.854 104.928 62.399 103.313 63.2678L99.2439 58.5051C99.2439 58.5051 98.48 58.5583 98.002 59.1969C98.002 59.1969 99.5806 65.9141 102.461 66.8444C105.342 67.7746 111.214 61.2345 111.214 61.2345L110.117 56.854ZM105.279 97.5H110.607C110.863 97.2009 110.769 96.0962 110.73 95.7351C110.722 95.6621 110.717 95.6204 110.717 95.6204C110.717 95.6204 108.898 94.2273 108.648 95.294C108.64 95.3272 108.631 95.3601 108.621 95.3926C108.306 96.3903 106.894 96.8436 106.079 96.97C105.548 97.0519 105.352 97.3157 105.279 97.5Z" fill="#253E5F"/>
<path d="M108.866 97.5002H114.194C114.45 97.2011 114.356 96.0964 114.317 95.7353C114.309 95.6623 114.304 95.6206 114.304 95.6206C114.304 95.6206 112.484 94.2275 112.235 95.2942C112.227 95.3274 112.218 95.3603 112.208 95.3928C111.893 96.3905 110.481 96.8438 109.666 96.9702C109.135 97.0521 108.939 97.3159 108.866 97.5002Z" fill="#253E5F"/>
<path d="M106.734 73.7484C106.734 73.7484 106.989 76.4819 107.289 79.7671C107.695 84.2302 108.185 89.7127 108.233 90.7511C108.317 92.5546 108.653 95.439 108.653 95.439C108.653 95.439 109.449 96.1245 111.043 95.8355C111.043 95.8355 112.464 91.7175 112.869 87.36L112.888 87.1447C113.265 82.7094 113.852 73.3691 113.852 73.3691L106.734 73.7484Z" fill="#1890FF"/>
<path d="M108.18 73.9354C108.18 73.9354 108.66 76.6417 109.23 79.8946C110.006 84.3139 110.948 89.7431 111.081 90.7741C111.312 92.5646 111.887 95.4166 111.887 95.4166C111.887 95.4166 112.753 96.0523 114.353 95.6713C114.353 95.6713 115.466 91.4888 115.526 87.1272L115.528 86.9117C115.554 82.4741 115.395 73.1416 115.395 73.1416L108.18 73.9354Z" fill="#1890FF"/>
<path d="M109.005 57.8525C110.835 58.4256 113.857 56.8096 113.857 56.8096C113.857 56.8096 112.316 55.6225 112.404 53.0103L110.988 54.1416L110.027 54.9097C110.027 54.9097 110.03 55.3629 110.136 56.1566C110.164 56.3654 110.214 56.6915 110.056 56.8588C109.443 57.5073 109.005 57.8525 109.005 57.8525Z" fill="#FFBB96"/>
<path d="M109.467 54.8668C109.467 54.8668 112.491 55.3652 112.775 53.4928C113.059 51.6206 113.641 50.4239 111.722 50.0267C109.803 49.6295 109.318 50.2874 109.07 50.8896C108.822 51.4917 108.688 54.689 109.467 54.8668Z" fill="#FFBB96"/>
<path d="M106.449 74.7166C106.504 74.7619 106.568 74.7896 106.642 74.7896C107.33 74.7802 109.335 75.1591 111.031 74.9863C112.461 74.8498 113.728 74.43 115.087 73.8261C115.267 73.7455 115.682 73.5256 115.674 73.3257C115.667 73.1063 115.646 72.7891 115.618 72.3887C115.522 70.9972 115.354 68.6043 115.518 65.8433C115.547 65.3291 115.563 64.8194 115.565 64.3173C115.579 60.575 114.831 57.2842 113.326 56.1704C113.198 56.0793 112.409 56.4615 111.685 56.8152C111.015 57.1428 110.49 57.1773 109.858 57.0504L109.081 57.606C108.311 58.315 107.467 59.2791 107.1 60.7423C106.788 61.988 106.605 64.2336 106.504 66.5611C106.459 67.6157 106.422 68.6798 106.413 69.6885V69.7244C106.404 69.8243 106.404 69.9337 106.404 70.0335C106.367 72.6256 106.404 74.6802 106.449 74.7166Z" fill="#253E5F"/>
<path d="M118.634 73.1759C118.06 73.2531 117.447 73.1733 117.447 73.1733C117.447 73.1733 116.063 67.9151 115.874 67.4313C115.684 66.9477 111.222 61.0927 111.222 61.0927L113.505 56.2569C113.505 56.2569 118.184 65.1319 118.639 66.3674C119.392 68.4087 119.434 72.8917 119.434 72.8917C119.434 72.8917 119.085 73.1154 118.634 73.1759ZM113.115 52.8225C112.95 53.1601 112.473 53.21 112.517 52.8377C112.567 52.414 112.566 51.8596 112.219 51.9628C111.871 52.0659 111.854 52.3419 111.711 52.1808C111.568 52.0199 111.566 51.3411 110.531 51.2933C109.497 51.2463 109.077 51.6032 108.596 51.3934C108.308 51.2676 108.184 50.9587 108.13 50.731C108.114 50.6664 108.162 50.5763 108.205 50.6266C108.246 50.6742 108.35 50.6713 108.32 50.6159C108.138 50.2731 107.866 49.5247 108.56 48.9672C109.489 48.2213 110.436 48.7096 110.974 48.7416C112.159 48.8127 112.924 48.8829 113.31 49.6549C113.631 50.2951 113.576 51.877 113.115 52.8225Z" fill="#253E5F"/>
<path d="M96.24 54.7484L97.7684 54.2857C97.8764 54.253 97.9906 54.3133 98.0235 54.4203L99.0437 57.7338C99.0766 57.8408 99.0158 57.954 98.9079 57.9867L97.3794 58.4493C97.2715 58.482 97.1573 58.4217 97.1243 58.3147L96.1042 55.0013C96.0712 54.8943 96.132 54.781 96.24 54.7484Z" fill="#1890FF"/>
</g>
<defs>
<clipPath id="clip0_14_41471">
<rect width="177" height="117" fill="white" transform="translate(0.760742)"/>
</clipPath>
</defs>
</svg>
