<svg width="177" height="117" viewBox="0 0 177 117" fill="none" xmlns="http://www.w3.org/2000/svg">
<g clip-path="url(#clip0_14_41437)">
<path d="M128.423 19.8901H72.9631C69.8132 19.8901 67.2598 22.422 67.2598 25.5451V37.6351C67.2598 40.7583 69.8132 43.2901 72.9631 43.2901H128.423C131.573 43.2901 134.126 40.7583 134.126 37.6351V25.5451C134.126 22.422 131.573 19.8901 128.423 19.8901Z" fill="white" stroke="#F0F0F0" stroke-width="2"/>
<path d="M82.9935 22.0352H75.5201C72.2616 22.0352 69.6201 24.6543 69.6201 27.8852V35.2952C69.6201 38.526 72.2616 41.1452 75.5201 41.1452H82.9935C86.2519 41.1452 88.8935 38.526 88.8935 35.2952V27.8852C88.8935 24.6543 86.2519 22.0352 82.9935 22.0352Z" fill="#FFE58F"/>
<path fill-rule="evenodd" clip-rule="evenodd" d="M83.6359 35.5981V36.2369C83.6359 36.5897 83.3509 36.8759 82.9999 36.8759H75.3692C75.0182 36.8759 74.7334 36.5897 74.7334 36.2369V35.5878C74.7334 33.6545 76.9323 32.3984 79.1846 32.3984C81.437 32.3984 83.6359 33.6551 83.6359 35.5878M80.7811 26.7857C81.663 27.6599 81.663 29.0773 80.7811 29.9517C79.8994 30.8261 78.4699 30.8261 77.588 29.9517C76.7062 29.0773 76.7062 27.6599 77.588 26.7857C78.4699 25.9113 79.8994 25.9113 80.7811 26.7857Z" fill="white"/>
<path d="M125.768 25.1548H92.1383C91.5409 25.1548 91.0566 25.635 91.0566 26.2273C91.0566 26.8196 91.5409 27.2998 92.1383 27.2998H125.768C126.366 27.2998 126.85 26.8196 126.85 26.2273C126.85 25.635 126.366 25.1548 125.768 25.1548Z" fill="#F0F0F0"/>
<path d="M125.768 30.4199H92.1383C91.5409 30.4199 91.0566 30.9001 91.0566 31.4924C91.0566 32.0847 91.5409 32.5649 92.1383 32.5649H125.768C126.366 32.5649 126.85 32.0847 126.85 31.4924C126.85 30.9001 126.366 30.4199 125.768 30.4199Z" fill="#F0F0F0"/>
<path d="M125.768 35.6851H92.1383C91.5409 35.6851 91.0566 36.1652 91.0566 36.7576C91.0566 37.3499 91.5409 37.8301 92.1383 37.8301H125.768C126.366 37.8301 126.85 37.3499 126.85 36.7576C126.85 36.1652 126.366 35.6851 125.768 35.6851Z" fill="#F0F0F0"/>
<path d="M128.424 73.7017H72.9637C69.8092 73.7017 67.252 76.2372 67.252 79.365V91.455C67.252 94.5828 69.8092 97.1184 72.9637 97.1184H128.424C131.578 97.1184 134.136 94.5828 134.136 91.455V79.365C134.136 76.2372 131.578 73.7017 128.424 73.7017Z" fill="white" stroke="#F0F0F0" stroke-width="1.914"/>
<path d="M82.9935 75.855H75.5201C72.2616 75.855 69.6201 78.4741 69.6201 81.705V89.115C69.6201 92.3458 72.2616 94.965 75.5201 94.965H82.9935C86.2519 94.965 88.8935 92.3458 88.8935 89.115V81.705C88.8935 78.4741 86.2519 75.855 82.9935 75.855Z" fill="#FFE58F"/>
<path fill-rule="evenodd" clip-rule="evenodd" d="M83.6359 89.4184V90.0572C83.6359 90.41 83.3509 90.6963 82.9999 90.6963H75.3692C75.0182 90.6963 74.7334 90.41 74.7334 90.0572V89.4081C74.7334 87.4749 76.9323 86.2187 79.1846 86.2187C81.437 86.2187 83.6359 87.4754 83.6359 89.4081M80.7811 80.606C81.663 81.4802 81.663 82.8976 80.7811 83.772C79.8994 84.6464 78.4699 84.6464 77.588 83.772C76.7062 82.8976 76.7062 81.4802 77.588 80.606C78.4699 79.7316 79.8994 79.7316 80.7811 80.606Z" fill="white"/>
<path d="M125.768 78.9751H92.1383C91.5409 78.9751 91.0566 79.4553 91.0566 80.0476C91.0566 80.6399 91.5409 81.1201 92.1383 81.1201H125.768C126.366 81.1201 126.85 80.6399 126.85 80.0476C126.85 79.4553 126.366 78.9751 125.768 78.9751Z" fill="#F0F0F0"/>
<path d="M125.768 84.2402H92.1383C91.5409 84.2402 91.0566 84.7204 91.0566 85.3127C91.0566 85.9051 91.5409 86.3852 92.1383 86.3852H125.768C126.366 86.3852 126.85 85.9051 126.85 85.3127C126.85 84.7204 126.366 84.2402 125.768 84.2402Z" fill="#F0F0F0"/>
<path d="M125.768 89.5049H92.1383C91.5409 89.5049 91.0566 89.9851 91.0566 90.5774C91.0566 91.1697 91.5409 91.6499 92.1383 91.6499H125.768C126.366 91.6499 126.85 91.1697 126.85 90.5774C126.85 89.9851 126.366 89.5049 125.768 89.5049Z" fill="#F0F0F0"/>
<path d="M144.944 46.7998H89.4836C86.3337 46.7998 83.7803 49.3316 83.7803 52.4548V64.5448C83.7803 67.668 86.3337 70.1998 89.4836 70.1998H144.944C148.093 70.1998 150.647 67.668 150.647 64.5448V52.4548C150.647 49.3316 148.093 46.7998 144.944 46.7998Z" fill="white" stroke="#F0F0F0" stroke-width="2"/>
<path d="M99.513 48.9448H92.0396C88.7812 48.9448 86.1396 51.564 86.1396 54.7948V62.2048C86.1396 65.4357 88.7812 68.0548 92.0396 68.0548H99.513C102.771 68.0548 105.413 65.4357 105.413 62.2048V54.7948C105.413 51.564 102.771 48.9448 99.513 48.9448Z" fill="#FFE58F"/>
<path fill-rule="evenodd" clip-rule="evenodd" d="M100.155 62.5083V63.1471C100.155 63.4998 99.8705 63.7861 99.5194 63.7861H91.8888C91.5377 63.7861 91.2529 63.4998 91.2529 63.1471V62.4979C91.2529 60.5647 93.4519 59.3085 95.7041 59.3085C97.9565 59.3085 100.155 60.5653 100.155 62.4979M97.3006 53.6958C98.1825 54.57 98.1825 55.9875 97.3006 56.8618C96.419 57.7362 94.9894 57.7362 94.1075 56.8618C93.2257 55.9875 93.2257 54.57 94.1075 53.6958C94.9894 52.8214 96.419 52.8214 97.3006 53.6958Z" fill="white"/>
<path d="M142.289 52.0649H108.659C108.061 52.0649 107.577 52.5451 107.577 53.1374C107.577 53.7298 108.061 54.2099 108.659 54.2099H142.289C142.886 54.2099 143.37 53.7298 143.37 53.1374C143.37 52.5451 142.886 52.0649 142.289 52.0649Z" fill="#F0F0F0"/>
<path d="M142.289 57.3301H108.659C108.061 57.3301 107.577 57.8103 107.577 58.4026C107.577 58.9949 108.061 59.4751 108.659 59.4751H142.289C142.886 59.4751 143.37 58.9949 143.37 58.4026C143.37 57.8103 142.886 57.3301 142.289 57.3301Z" fill="#F0F0F0"/>
<path d="M142.289 62.5952H108.659C108.061 62.5952 107.577 63.0754 107.577 63.6677C107.577 64.26 108.061 64.7402 108.659 64.7402H142.289C142.886 64.7402 143.37 64.26 143.37 63.6677C143.37 63.0754 142.886 62.5952 142.289 62.5952Z" fill="#F0F0F0"/>
<path fill-rule="evenodd" clip-rule="evenodd" d="M69.5658 66.0746C65.4507 66.0746 62.1143 62.7198 62.1143 58.5823C62.1143 54.4446 65.4507 51.0898 69.5658 51.0898C73.6808 51.0898 77.0173 54.4446 77.0173 58.5823C77.0173 62.7198 73.6808 66.0746 69.5658 66.0746Z" fill="#FFE58F"/>
<path d="M72.189 57.3335L69.0411 60.6633L67.1514 58.6657" stroke="white" stroke-width="6.288" stroke-linecap="round" stroke-linejoin="round"/>
<path d="M59.0936 41.0347C58.9769 41.928 58.6648 43.0048 58.1596 43.3704C57.5867 43.7856 57.4097 44.2263 57.4097 44.2263L56.8274 44.0483L56.1314 43.8355C56.1314 43.8355 56.1302 43.7651 56.1345 43.6477C56.138 43.5315 56.1489 43.3687 56.1719 43.1854C56.1719 43.1854 56.3046 42.9024 56.1186 42.6275C55.9327 42.3531 55.8472 41.8822 55.9782 41.5532C56.1083 41.2252 56.1355 40.4825 56.2586 40.4766C56.5571 40.4601 56.3528 41.5183 56.5176 41.6677C56.6657 41.8038 56.7926 41.7165 56.8152 41.6977C56.8168 41.6966 56.8184 41.6953 56.8199 41.694C57.5426 41.1586 58.0774 39.0434 58.5688 39.2002C58.7521 39.2585 59.1439 40.6545 59.0936 41.0347ZM29.7066 63.0149C29.7066 63.0149 30.3238 64.0738 30.0475 64.6845C29.7719 65.2957 28.8151 66.1104 28.5683 66.43C28.3225 66.749 27.488 67.592 27.1517 67.0495C26.8158 66.5084 27.4092 65.0691 27.8206 64.5266C28.2316 63.9831 28.2706 63.0504 28.2706 63.0504L29.7066 63.0149Z" fill="#FFBB96"/>
<path d="M30.1019 64.5083C30.1019 64.5083 30.0549 65.6752 29.999 65.9866C29.9428 66.2988 29.8873 66.2032 29.6722 65.9938C29.457 65.7842 29.4594 65.1736 29.3787 65.1335C29.2981 65.0933 30.1019 64.5083 30.1019 64.5083Z" fill="#FFBB96"/>
<path d="M40.8974 40.9077C40.8974 40.9077 48.0962 48.6014 50.3372 49.8071L55.9835 43.1988C55.9835 43.1988 57.0433 43.2725 57.7069 44.1588C57.7069 44.1588 55.5162 53.4788 51.5194 54.7697C47.5225 56.0604 39.374 46.9857 39.374 46.9857L40.8974 40.9077ZM47.6092 97.3052H40.2169C39.8618 96.8901 39.9925 95.3574 40.0458 94.8562C40.057 94.7552 40.0645 94.6971 40.0645 94.6971C40.0645 94.6971 42.5887 92.7643 42.9355 94.2443C42.9459 94.2907 42.9589 94.3364 42.9728 94.3812C43.4094 95.7653 45.3692 96.3944 46.4998 96.5697C47.2364 96.6834 47.5084 97.0494 47.6092 97.3052Z" fill="#253E5F"/>
<path d="M42.6323 97.3049H35.24C34.8848 96.8897 35.0158 95.357 35.0689 94.8559C35.0801 94.7549 35.0876 94.6968 35.0876 94.6968C35.0876 94.6968 37.612 92.7639 37.9587 94.244C37.969 94.2904 37.9819 94.336 37.9961 94.3809C38.4325 95.765 40.3923 96.394 41.5231 96.5693C42.2594 96.683 42.5314 97.049 42.6323 97.3049Z" fill="#253E5F"/>
<path d="M45.5897 64.3489C45.5897 64.3489 45.2363 68.1416 44.8209 72.7001C44.2563 78.8927 43.5772 86.4997 43.5099 87.9405C43.3935 90.443 42.9282 94.4454 42.9282 94.4454C42.9282 94.4454 41.8231 95.3964 39.6114 94.9955C39.6114 94.9955 37.6402 89.2814 37.0776 83.2354L37.0516 82.9368C36.5275 76.7826 35.7139 63.8228 35.7139 63.8228L45.5897 64.3489Z" fill="#FFE58F"/>
<path d="M43.5845 64.6084C43.5845 64.6084 42.918 68.3633 42.1264 72.877C41.0506 79.0089 39.744 86.542 39.5589 87.9725C39.238 90.4568 38.4405 94.4139 38.4405 94.4139C38.4405 94.4139 37.2387 95.2961 35.0195 94.7675C35.0195 94.7675 33.4746 88.9639 33.3909 82.9123L33.3887 82.6133C33.3529 76.456 33.5728 63.5068 33.5728 63.5068L43.5845 64.6084Z" fill="#FFE58F"/>
<path d="M42.4399 42.2927C39.8998 43.0882 35.708 40.8458 35.708 40.8458C35.708 40.8458 37.8462 39.1985 37.7238 35.5742L39.6878 37.144L41.0221 38.2096C41.0221 38.2096 41.0168 38.8383 40.8707 39.9399C40.8322 40.2295 40.7618 40.682 40.9806 40.9139C41.8312 41.814 42.4399 42.2927 42.4399 42.2927Z" fill="#FFBB96"/>
<path d="M41.7987 38.1502C41.7987 38.1502 37.6024 38.8419 37.2083 36.2439C36.8144 33.6459 36.0078 31.9855 38.6701 31.4344C41.3324 30.8832 42.0054 31.7964 42.3492 32.6317C42.6931 33.4673 42.8796 37.9036 41.7987 38.1502Z" fill="#FFBB96"/>
<path d="M45.9858 65.6927C45.9093 65.7555 45.8204 65.7939 45.7183 65.7939C44.7641 65.7808 41.982 66.3068 39.6285 66.0669C37.6442 65.8776 35.8869 65.2951 34.0011 64.457C33.7506 64.3455 33.1745 64.0401 33.1867 63.7628C33.1956 63.4584 33.2255 63.0181 33.2642 62.4625C33.3979 60.5318 33.63 57.2118 33.403 53.3808C33.3628 52.6756 33.3411 51.9696 33.338 51.2633C33.3187 46.0708 34.3565 41.5047 36.4437 39.9593C36.6223 39.833 37.7163 40.3632 38.7217 40.8542C39.6504 41.3085 40.3786 41.3565 41.2565 41.1802L42.3339 41.9513C43.4026 42.9348 44.5731 44.2727 45.0825 46.3029C45.5152 48.0314 45.7694 51.1473 45.9093 54.3767C45.9726 55.8399 46.0235 57.3165 46.0367 58.7162V58.7657C46.0491 58.9046 46.0491 59.0563 46.0491 59.1949C46.1 62.7913 46.0491 65.6422 45.9858 65.6927Z" fill="#253E5F"/>
<path d="M29.0779 63.5544C29.8744 63.6616 30.7242 63.5509 30.7242 63.5509C30.7242 63.5509 32.6451 56.255 32.908 55.584C33.1712 54.9128 39.3632 46.7887 39.3632 46.7887L36.1949 40.0789C36.1949 40.0789 29.7028 52.3932 29.0707 54.1074C28.0262 56.94 27.9688 63.1603 27.9688 63.1603C27.9688 63.1603 28.452 63.4705 29.0779 63.5544ZM36.7361 35.3137C36.9645 35.7819 37.6272 35.8513 37.5661 35.3348C37.4967 34.7468 37.4974 33.9778 37.9795 34.1207C38.4615 34.2638 38.4861 34.6466 38.6839 34.4233C38.882 34.2001 38.8855 33.2582 40.3208 33.1919C41.7563 33.1266 42.3394 33.6219 43.0061 33.3306C43.4057 33.1562 43.5786 32.7276 43.6531 32.4115C43.6744 32.322 43.6085 32.197 43.5483 32.2668C43.4913 32.3329 43.3479 32.3286 43.3888 32.2518C43.6415 31.7762 44.0197 30.7378 43.0562 29.9645C41.7669 28.9292 40.4528 29.6068 39.707 29.6513C38.0631 29.7498 37.0015 29.8475 36.4649 30.9184C36.0203 31.8068 36.0964 34.0016 36.7361 35.3137Z" fill="#253E5F"/>
<path fill-rule="evenodd" clip-rule="evenodd" d="M148.003 30.9296H147.495C147.436 30.9296 147.379 30.9064 147.338 30.8651C147.296 30.8239 147.273 30.768 147.273 30.7097V30.206C147.273 30.0841 147.373 29.986 147.495 29.986H148.003C148.125 29.986 148.225 30.0851 148.225 30.206V30.7097C148.225 30.7386 148.219 30.7672 148.208 30.7939C148.197 30.8206 148.18 30.8449 148.16 30.8654C148.139 30.8858 148.115 30.902 148.088 30.913C148.061 30.9241 148.032 30.9297 148.003 30.9296ZM146.241 30.9296H145.733C145.611 30.9296 145.511 30.8306 145.511 30.7097V30.206C145.511 30.0841 145.611 29.986 145.733 29.986H146.241C146.363 29.986 146.463 30.0851 146.463 30.206V30.7097C146.463 30.8306 146.363 30.9296 146.241 30.9296ZM144.478 30.9296H143.97C143.848 30.9296 143.748 30.8306 143.748 30.7097V30.206C143.748 30.0841 143.848 29.986 143.97 29.986H144.478C144.6 29.986 144.7 30.0851 144.7 30.206V30.7097C144.7 30.7385 144.694 30.7672 144.683 30.7939C144.672 30.8206 144.656 30.8449 144.635 30.8653C144.615 30.8857 144.59 30.9019 144.563 30.913C144.536 30.924 144.507 30.9297 144.478 30.9296ZM142.716 30.9296H142.208C142.149 30.9294 142.093 30.9062 142.052 30.865C142.01 30.8238 141.987 30.7679 141.986 30.7097V30.206C141.986 30.1477 142.01 30.0918 142.051 30.0505C142.093 30.0093 142.149 29.9861 142.208 29.986H142.716C142.839 29.986 142.939 30.0851 142.939 30.206V30.7097C142.939 30.768 142.915 30.8237 142.873 30.8649C142.832 30.906 142.775 30.9293 142.716 30.9296ZM140.954 30.9296H140.446C140.388 30.9296 140.331 30.9065 140.289 30.8652C140.247 30.824 140.224 30.7681 140.224 30.7097V30.206C140.224 30.177 140.229 30.1484 140.241 30.1216C140.252 30.0949 140.268 30.0706 140.289 30.0502C140.31 30.0298 140.334 30.0136 140.361 30.0026C140.388 29.9916 140.417 29.9859 140.446 29.986H140.954C141.076 29.986 141.176 30.0851 141.176 30.206V30.7097C141.176 30.8306 141.076 30.9296 140.954 30.9296ZM146.177 29.0249H145.668C145.546 29.0249 145.447 28.9256 145.447 28.8049V28.3C145.447 28.1791 145.546 28.0801 145.668 28.0801H146.177C146.299 28.0801 146.398 28.1791 146.398 28.3V28.8039C146.398 28.8329 146.393 28.8616 146.382 28.8884C146.371 28.9152 146.354 28.9396 146.334 28.9601C146.313 28.9807 146.289 28.997 146.262 29.0081C146.235 29.0192 146.206 29.0249 146.177 29.0249ZM144.415 29.0249H143.907C143.785 29.0249 143.685 28.9256 143.685 28.8049V28.3C143.685 28.1791 143.785 28.0801 143.907 28.0801H144.415C144.537 28.0801 144.636 28.1791 144.636 28.3V28.8039C144.637 28.8329 144.631 28.8616 144.62 28.8884C144.609 28.9152 144.592 28.9396 144.572 28.9601C144.551 28.9807 144.527 28.997 144.5 29.0081C144.473 29.0192 144.444 29.0249 144.415 29.0249ZM142.653 29.0249H142.145C142.086 29.0248 142.029 29.0016 141.988 28.9604C141.946 28.9192 141.922 28.8633 141.922 28.8049V28.3C141.922 28.1791 142.022 28.0801 142.145 28.0801H142.653C142.775 28.0801 142.875 28.1791 142.875 28.3V28.8039C142.875 28.9256 142.775 29.0249 142.653 29.0249ZM144.478 32.9759H143.97C143.848 32.9759 143.748 32.8769 143.748 32.756V32.2523C143.748 32.1304 143.848 32.0323 143.97 32.0323H144.478C144.6 32.0323 144.7 32.1314 144.7 32.2523V32.756C144.7 32.7849 144.694 32.8135 144.683 32.8402C144.672 32.8669 144.656 32.8912 144.635 32.9116C144.615 32.9321 144.59 32.9483 144.563 32.9593C144.536 32.9703 144.507 32.976 144.478 32.9759ZM142.716 32.9759H142.208C142.149 32.9757 142.093 32.9525 142.052 32.9113C142.01 32.8701 141.987 32.8143 141.986 32.756V32.2523C141.986 32.194 142.01 32.1381 142.051 32.0969C142.093 32.0556 142.149 32.0324 142.208 32.0323H142.716C142.839 32.0323 142.939 32.1314 142.939 32.2523V32.756C142.939 32.8143 142.915 32.87 142.873 32.9112C142.832 32.9523 142.775 32.9756 142.716 32.9759ZM148.003 85.7246H147.495C147.436 85.7246 147.379 85.7014 147.338 85.6601C147.296 85.6189 147.273 85.563 147.273 85.5047V85.001C147.273 84.8791 147.373 84.781 147.495 84.781H148.003C148.125 84.781 148.225 84.8801 148.225 85.001V85.5047C148.225 85.5336 148.219 85.5622 148.208 85.5889C148.197 85.6156 148.18 85.6399 148.16 85.6604C148.139 85.6808 148.115 85.697 148.088 85.708C148.061 85.7191 148.032 85.7247 148.003 85.7246ZM146.241 85.7246H145.733C145.611 85.7246 145.511 85.6256 145.511 85.5047V85.001C145.511 84.8791 145.611 84.781 145.733 84.781H146.241C146.363 84.781 146.463 84.8801 146.463 85.001V85.5047C146.463 85.6256 146.363 85.7246 146.241 85.7246ZM144.478 85.7246H143.97C143.848 85.7246 143.748 85.6256 143.748 85.5047V85.001C143.748 84.8791 143.848 84.781 143.97 84.781H144.478C144.6 84.781 144.7 84.8801 144.7 85.001V85.5047C144.7 85.5335 144.694 85.5622 144.683 85.5889C144.672 85.6156 144.656 85.6399 144.635 85.6603C144.615 85.6807 144.59 85.6969 144.563 85.708C144.536 85.719 144.507 85.7247 144.478 85.7246ZM142.716 85.7246H142.208C142.149 85.7244 142.093 85.7012 142.052 85.66C142.01 85.6188 141.987 85.5629 141.986 85.5047V85.001C141.986 84.9427 142.01 84.8868 142.051 84.8456C142.093 84.8043 142.149 84.7811 142.208 84.781H142.716C142.839 84.781 142.939 84.8801 142.939 85.001V85.5047C142.939 85.563 142.915 85.6187 142.873 85.6599C142.832 85.701 142.775 85.7243 142.716 85.7246ZM140.954 85.7246H140.446C140.388 85.7246 140.331 85.7015 140.289 85.6603C140.247 85.619 140.224 85.5631 140.224 85.5047V85.001C140.224 84.972 140.229 84.9434 140.241 84.9166C140.252 84.8899 140.268 84.8656 140.289 84.8452C140.31 84.8248 140.334 84.8086 140.361 84.7976C140.388 84.7866 140.417 84.7809 140.446 84.781H140.954C141.076 84.781 141.176 84.8801 141.176 85.001V85.5047C141.176 85.6256 141.076 85.7246 140.954 85.7246ZM146.177 83.8199H145.668C145.546 83.8199 145.447 83.7206 145.447 83.5999V83.095C145.447 82.9741 145.546 82.8751 145.668 82.8751H146.177C146.299 82.8751 146.398 82.9741 146.398 83.095V83.5989C146.398 83.6279 146.393 83.6566 146.382 83.6834C146.371 83.7102 146.354 83.7346 146.334 83.7551C146.313 83.7757 146.289 83.792 146.262 83.8031C146.235 83.8142 146.206 83.8199 146.177 83.8199ZM144.415 83.8199H143.907C143.785 83.8199 143.685 83.7206 143.685 83.5999V83.095C143.685 82.9741 143.785 82.8751 143.907 82.8751H144.415C144.537 82.8751 144.636 82.9741 144.636 83.095V83.5989C144.637 83.6279 144.631 83.6566 144.62 83.6834C144.609 83.7102 144.592 83.7346 144.572 83.7551C144.551 83.7757 144.527 83.792 144.5 83.8031C144.473 83.8142 144.444 83.8199 144.415 83.8199ZM142.653 83.8199H142.145C142.086 83.8198 142.029 83.7966 141.988 83.7554C141.946 83.7142 141.922 83.6583 141.922 83.5999V83.095C141.922 82.9741 142.022 82.8751 142.145 82.8751H142.653C142.775 82.8751 142.875 82.9741 142.875 83.095V83.5989C142.875 83.7206 142.775 83.8199 142.653 83.8199ZM144.478 87.7709H143.97C143.848 87.7709 143.748 87.6719 143.748 87.551V87.0473C143.748 86.9254 143.848 86.8273 143.97 86.8273H144.478C144.6 86.8273 144.7 86.9264 144.7 87.0473V87.551C144.7 87.5799 144.694 87.6085 144.683 87.6352C144.672 87.6619 144.656 87.6862 144.635 87.7066C144.615 87.7271 144.59 87.7433 144.563 87.7543C144.536 87.7653 144.507 87.771 144.478 87.7709ZM142.716 87.7709H142.208C142.149 87.7707 142.093 87.7475 142.052 87.7063C142.01 87.6651 141.987 87.6093 141.986 87.551V87.0473C141.986 86.989 142.01 86.9331 142.051 86.8919C142.093 86.8507 142.149 86.8274 142.208 86.8273H142.716C142.839 86.8273 142.939 86.9264 142.939 87.0473V87.551C142.939 87.6093 142.915 87.665 142.873 87.7062C142.832 87.7473 142.775 87.7706 142.716 87.7709Z" fill="#F0F0F0"/>
<path d="M63.828 43.29H63.8093C63.6994 44.7804 62.5402 44.8034 62.5402 44.8034C62.5402 44.8034 63.8185 44.8272 63.8185 46.5493C63.8185 44.8272 65.0969 44.8034 65.0969 44.8034C65.0969 44.8034 63.9379 44.7804 63.828 43.29ZM55.3772 58.5H55.3471C55.1693 60.9075 53.2969 60.9446 53.2969 60.9446C53.2969 60.9446 55.3619 60.9832 55.3619 63.765C55.3619 60.9832 57.4269 60.9446 57.4269 60.9446C57.4269 60.9446 55.5548 60.9075 55.3772 58.5ZM80.1513 66.3279H80.1326C80.0227 67.8183 78.8635 67.8413 78.8635 67.8413C78.8635 67.8413 80.1419 67.8651 80.1419 69.5872C80.1419 67.8651 81.4202 67.8413 81.4202 67.8413C81.4202 67.8413 80.2613 67.8183 80.1513 66.3279ZM80.1513 46.8H80.1326C80.0227 48.2904 78.8635 48.3134 78.8635 48.3134C78.8635 48.3134 80.1419 48.3372 80.1419 50.0593C80.1419 48.3372 81.4202 48.3134 81.4202 48.3134C81.4202 48.3134 80.2613 48.2904 80.1513 46.8ZM62.6273 69.03H62.6063C62.4812 70.7242 61.1635 70.7503 61.1635 70.7503C61.1635 70.7503 62.6165 70.7774 62.6165 72.735C62.6165 70.7774 64.0697 70.7503 64.0697 70.7503C64.0697 70.7503 62.7524 70.7242 62.6273 69.03Z" fill="#F0F0F0"/>
</g>
<defs>
<clipPath id="clip0_14_41437">
<rect width="177" height="117" fill="white"/>
</clipPath>
</defs>
</svg>
