<svg width="48" height="48" viewBox="0 0 48 48" fill="none" xmlns="http://www.w3.org/2000/svg">
<rect width="48" height="48" rx="6" fill="#FADB14"/>
<g clip-path="url(#clip0_912_634)">
<path d="M10.6666 37.3333C10.6666 34.5044 11.7904 31.7913 13.7908 29.7909C15.7912 27.7905 18.5043 26.6667 21.3333 26.6667C24.1623 26.6667 26.8754 27.7905 28.8758 29.7909C30.8762 31.7913 32 34.5044 32 37.3333H10.6666ZM21.3333 25.3333C16.9133 25.3333 13.3333 21.7533 13.3333 17.3333C13.3333 12.9133 16.9133 9.33334 21.3333 9.33334C25.7533 9.33334 29.3333 12.9133 29.3333 17.3333C29.3333 21.7533 25.7533 25.3333 21.3333 25.3333ZM31.1506 28.3107C33.1902 28.8349 35.0123 29.9891 36.3577 31.6091C37.7031 33.2291 38.5032 35.2322 38.644 37.3333H34.6666C34.6666 33.8533 33.3333 30.6853 31.1506 28.3107ZM28.4533 25.276C29.5706 24.2766 30.4642 23.0525 31.0754 21.6837C31.6866 20.3149 32.0017 18.8324 32 17.3333C32.0028 15.5113 31.5367 13.7192 30.6466 12.1293C32.1568 12.4328 33.5153 13.2498 34.4912 14.4416C35.4671 15.6334 36.0003 17.1263 36 18.6667C36.0003 19.6166 35.7976 20.5557 35.4054 21.4209C35.0133 22.2861 34.4407 23.0575 33.726 23.6834C33.0114 24.3093 32.1712 24.7752 31.2619 25.0498C30.3525 25.3245 29.3949 25.4016 28.4533 25.276Z" fill="white"/>
</g>
<defs>
<clipPath id="clip0_912_634">
<rect width="32" height="32" fill="white" transform="translate(8 8)"/>
</clipPath>
</defs>
</svg>
