<svg width="48" height="48" viewBox="0 0 48 48" fill="none" xmlns="http://www.w3.org/2000/svg">
<rect width="48" height="48" rx="6" fill="#52C41A"/>
<g clip-path="url(#clip0_912_628)">
<path d="M24 22.6667C25.7681 22.6667 27.4638 23.369 28.714 24.6193C29.9642 25.8695 30.6666 27.5652 30.6666 29.3333V37.3333H17.3333V29.3333C17.3333 27.5652 18.0357 25.8695 19.2859 24.6193C20.5362 23.369 22.2318 22.6667 24 22.6667ZM15.0506 26.6747C14.8384 27.3904 14.7131 28.129 14.6773 28.8747L14.6666 29.3333V37.3333H10.6666V31.3333C10.6664 30.1834 11.0907 29.0739 11.8581 28.2176C12.6256 27.3613 13.6822 26.8185 14.8253 26.6933L15.0506 26.6747ZM32.9493 26.6747C34.1358 26.747 35.2501 27.2693 36.0648 28.135C36.8794 29.0007 37.3331 30.1446 37.3333 31.3333V37.3333H33.3333V29.3333C33.3333 28.4093 33.2 27.5173 32.9493 26.6747ZM15.3333 18.6667C16.2173 18.6667 17.0652 19.0178 17.6903 19.643C18.3154 20.2681 18.6666 21.1159 18.6666 22C18.6666 22.884 18.3154 23.7319 17.6903 24.357C17.0652 24.9821 16.2173 25.3333 15.3333 25.3333C14.4492 25.3333 13.6014 24.9821 12.9763 24.357C12.3511 23.7319 12 22.884 12 22C12 21.1159 12.3511 20.2681 12.9763 19.643C13.6014 19.0178 14.4492 18.6667 15.3333 18.6667ZM32.6666 18.6667C33.5507 18.6667 34.3985 19.0178 35.0236 19.643C35.6488 20.2681 36 21.1159 36 22C36 22.884 35.6488 23.7319 35.0236 24.357C34.3985 24.9821 33.5507 25.3333 32.6666 25.3333C31.7826 25.3333 30.9347 24.9821 30.3096 24.357C29.6845 23.7319 29.3333 22.884 29.3333 22C29.3333 21.1159 29.6845 20.2681 30.3096 19.643C30.9347 19.0178 31.7826 18.6667 32.6666 18.6667ZM24 10.6667C25.4144 10.6667 26.771 11.2286 27.7712 12.2288C28.7714 13.2289 29.3333 14.5855 29.3333 16C29.3333 17.4145 28.7714 18.771 27.7712 19.7712C26.771 20.7714 25.4144 21.3333 24 21.3333C22.5855 21.3333 21.2289 20.7714 20.2287 19.7712C19.2285 18.771 18.6666 17.4145 18.6666 16C18.6666 14.5855 19.2285 13.2289 20.2287 12.2288C21.2289 11.2286 22.5855 10.6667 24 10.6667Z" fill="white"/>
</g>
<defs>
<clipPath id="clip0_912_628">
<rect width="32" height="32" fill="white" transform="translate(8 8)"/>
</clipPath>
</defs>
</svg>
