<svg width="178" height="101" viewBox="0 0 178 101" fill="none" xmlns="http://www.w3.org/2000/svg">
<path d="M121.022 25.5381H42.2666C38.5705 25.5381 35.5742 28.509 35.5742 32.1737V80.187C35.5742 83.8518 38.5705 86.8227 42.2666 86.8227H121.022C124.718 86.8227 127.715 83.8518 127.715 80.187V32.1737C127.715 28.509 124.718 25.5381 121.022 25.5381Z" fill="white" stroke="#BBC3CD" stroke-width="2.959"/>
<path d="M42.8054 31.8516C43.5544 31.8516 44.1616 31.2495 44.1616 30.5068C44.1616 29.7642 43.5544 29.1621 42.8054 29.1621C42.0564 29.1621 41.4492 29.7642 41.4492 30.5068C41.4492 31.2495 42.0564 31.8516 42.8054 31.8516Z" fill="#BBC3CD"/>
<path d="M47.491 31.8516C48.24 31.8516 48.8472 31.2495 48.8472 30.5068C48.8472 29.7642 48.24 29.1621 47.491 29.1621C46.742 29.1621 46.1348 29.7642 46.1348 30.5068C46.1348 31.2495 46.742 31.8516 47.491 31.8516Z" fill="#BBC3CD"/>
<path d="M52.1756 31.8516C52.9246 31.8516 53.5318 31.2495 53.5318 30.5068C53.5318 29.7642 52.9246 29.1621 52.1756 29.1621C51.4265 29.1621 50.8193 29.7642 50.8193 30.5068C50.8193 31.2495 51.4265 31.8516 52.1756 31.8516Z" fill="#BBC3CD"/>
<path d="M145.866 53.8417C144.783 42.2296 125.3 42.4391 125.3 42.4391C125.3 42.4391 109.08 59.6353 105.271 59.4548C101.461 59.274 116.244 42.0658 116.244 42.0658C109.142 40.1277 89.1927 45.7299 89.1927 45.7299C89.1927 45.7299 86.3848 68.572 82.7375 67.4671C79.0899 66.3623 86.2643 47.3663 86.2643 47.3663C78.9097 48.2401 70.9662 55.2016 70.9662 55.2016C60.4994 66.9631 76.2721 79.6831 76.2721 79.6831C76.2721 79.6831 75.1271 87.5785 68.652 95.7437C68.652 95.7437 67.2567 97.2169 65.6377 99.8516L67.5428 100.181C67.7809 99.7108 68.0394 99.2516 68.3175 98.804C68.3191 98.8003 68.3198 98.7984 68.3232 98.7954C68.3283 98.7888 68.3307 98.7832 68.3356 98.7765C68.5165 98.5074 68.7789 98.1233 69.1012 97.6588L69.102 97.6568L69.1028 97.6551C69.8827 96.6243 70.424 95.8582 70.7772 95.2993L70.7795 95.2936C73.1468 92.0461 76.4707 87.8579 78.317 87.1783C78.317 87.1783 78.1573 86.848 78.0603 86.2417C78.1427 86.5403 78.2261 86.8523 78.317 87.1783C80.3625 94.672 96.4713 98.6406 105.883 98.3596C115.295 98.0786 111.78 94.8541 107.61 89.8855C103.44 84.9169 92.9968 84.2356 90.2525 82.0956C87.508 79.9559 92.2178 79.1028 98.1965 80.6092C104.173 82.1169 106.15 88.6459 115.773 91.2585C125.397 93.8711 136.057 76.9044 136.057 76.9044C128.934 77.8191 117.466 72.0303 117.405 69.6406C117.345 67.2491 135.246 70.5754 138.163 70.3646C141.084 70.1536 146.949 65.4538 145.866 53.8417Z" fill="white"/>
<path d="M45.9504 66.6294C48.5654 62.432 55.9076 66.1481 55.9076 66.1481C55.9076 66.1481 58.7882 75.6912 60.2657 76.3337C61.7433 76.9763 59.4096 67.6972 59.4096 67.6972C62.4684 68.2884 68.9631 74.1347 68.9631 74.1347C68.9631 74.1347 65.69 83.3134 67.2818 83.5756C68.8734 83.8377 69.762 75.3014 69.762 75.3014C72.3826 77.0053 74.0706 81.1257 74.0706 81.1257C75.803 87.5357 67.412 89.4108 67.412 89.4108C67.412 89.4108 66.3467 92.616 67.2498 96.9183C67.2498 96.9183 67.4987 97.7369 67.6118 99.0374L66.8275 98.8063C66.8264 98.5839 66.8157 98.3617 66.7955 98.1402C66.7955 98.1384 66.7957 98.1377 66.7949 98.1359C66.7943 98.1324 66.7945 98.1299 66.7937 98.1264C66.7762 97.9908 66.7498 97.7962 66.7158 97.5601L66.716 97.5591V97.5583C66.6161 97.0221 66.5565 96.6309 66.529 96.3532L66.5292 96.3507C66.2487 94.6784 65.7846 92.4712 65.2141 91.869C65.2141 91.869 65.3374 91.7736 65.4892 91.5619C65.4013 91.6598 65.3104 91.7623 65.2141 91.869C63.0163 94.3264 56.1595 92.8231 52.6469 90.9597C49.1342 89.0965 51.0783 88.5308 53.6015 87.4267C56.1249 86.3226 60.2109 88.0139 61.657 87.7153C63.103 87.4168 61.4807 86.2146 58.9294 85.6692C56.3788 85.1249 54.3901 87.2298 50.2479 86.4232C46.1057 85.6167 45.2882 77.1986 45.2882 77.1986C47.8132 78.8746 53.2575 78.8219 53.7342 77.9281C54.2112 77.0332 46.7968 74.9518 45.7319 74.3276C44.6653 73.7024 43.3353 70.8269 45.9504 66.6294Z" fill="white"/>
<path d="M85.46 59.2876C86.2934 60.584 88.4707 62.0946 90.0154 62.074C95.2764 61.9784 97.0084 58.4249 97.5762 57.1311C97.4694 57.1054 97.2899 57.0847 97.1622 57.0691C96.1932 56.9297 95.2036 55.9794 94.9145 54.9077C94.542 53.5131 94.0836 50.786 94.1383 49.0532L87.4837 52.7048C87.4941 53.2057 87.5279 53.7533 87.5747 54.3059C87.6087 54.6417 87.6426 54.9723 87.6815 55.2924C87.7181 55.5998 87.7598 55.8915 87.7987 56.1602C87.9212 57.064 87.5149 57.96 86.7466 58.4585L85.46 59.2876Z" fill="#FFBB96"/>
<path d="M84.887 45.0838C85.2465 46.0188 85.0954 47.0802 84.7306 48.0125C84.4728 48.671 83.8999 48.0899 83.1862 48.1028C82.0819 48.1209 81.2197 46.9819 80.553 43.9631C80.1284 41.7473 80.0216 40.6239 80.1076 40.4096C80.4124 39.6425 81.4178 39.232 82.2459 39.1597" fill="#253E5F"/>
<path d="M83.207 38.4444C81.467 40.5233 80.8342 46.3728 82.3033 50.4479C83.3476 53.3454 84.5614 55.2152 85.9782 55.1557C88.1295 55.0655 92.2994 53.3118 93.6564 51.8476C96.1022 49.211 95.391 44.0408 94.8858 40.7868C94.4274 37.83 93.0312 33.9897 89.2834 34.7205C86.8195 35.1983 84.7671 36.5773 83.207 38.4444Z" fill="#FFBB96"/>
<path d="M93.0498 40.7404C92.664 41.232 91.9837 41.3405 91.4232 41.4376C90.6698 41.5682 90.2971 41.8404 89.9059 42.5709C89.6583 43.0373 89.4107 43.5484 88.9676 43.8012C88.6073 44.0075 88.6211 43.4806 88.5631 43.0723C88.5577 43.0366 88.5504 43.0014 88.5411 42.9666C88.4535 42.6407 88.1035 42.6967 88.0004 43.018C87.9066 43.3068 87.7058 43.5512 87.4504 43.6873C87.4087 43.7095 87.3644 43.729 87.32 43.7206C87.26 43.7124 87.2132 43.6569 87.174 43.6067C87.092 43.5018 87.0104 43.3686 86.9262 43.2275C86.6495 42.7643 86.1274 42.9309 85.8184 43.3735C85.6257 43.6485 85.3962 43.9318 85.0807 43.9956C84.979 44.0178 84.8514 44.0012 84.8044 43.9039C84.7444 43.7846 84.8382 43.6651 84.8227 43.543C84.8097 43.4291 84.7601 43.379 84.7053 43.2819C84.4901 42.904 83.9994 42.8905 83.6972 43.2041C83.4866 43.4221 83.2672 43.6315 83.0395 43.8318C82.9431 43.915 82.8023 43.9985 82.706 43.915C82.6538 43.8706 82.6407 43.7957 82.6302 43.7234C82.5756 43.3708 82.5235 43.018 82.4688 42.6653C82.4373 42.4681 82.3305 42.2098 82.148 42.2597C82.0595 42.2848 82.0072 42.3765 81.9578 42.4598C81.8979 42.5652 80.8264 43.7678 80.8056 43.6762C80.6386 42.9931 80.2972 42.3708 80.1304 41.6876C79.0511 37.2909 83.8399 33.7553 87.4974 33.7358C88.3106 33.7302 89.0536 33.7433 89.8434 33.9295C90.6855 34.1294 91.5745 34.4468 92.3381 34.894C93.4095 35.5189 94.2204 36.655 94.0117 38.0102" fill="#253E5F"/>
<path d="M91.3277 39.2323C90.7963 39.8288 90.6557 40.6681 90.6063 41.4609C90.5333 42.6567 90.6322 43.8988 91.1896 44.9602C91.3485 45.2623 91.4657 46.7575 91.7106 46.6748C91.7886 46.6491 91.7757 45.4896 91.9814 44.8647C92.2992 43.8961 93.763 43.527 94.4218 44.1389C95.4742 45.1125 94.8568 46.2954 94.5078 47.0313C94.2995 47.4755 93.9687 47.9739 93.9113 48.4439C93.8411 49.0456 93.8202 51.2382 94.2161 51.7495C94.5469 52.1781 94.8985 50.107 95.1981 49.6991C97.4145 46.6594 99.5399 38.9197 95.7554 37.2411C95.1798 36.9855 93.4035 36.8537 92.8644 37.1791M77.315 100.757C77.0961 100.793 76.8748 100.824 76.6455 100.832C75.4266 100.871 74.2493 100.605 73.0591 100.403C72.012 100.225 71.7283 100.127 71.7491 98.8746C71.9314 88.9553 73.4029 79.0618 76.0492 69.4937C76.4528 68.032 76.8929 66.56 77.6666 65.2533C78.987 63.0246 82.0188 61.1007 84.3446 60.0212C84.6729 59.8687 86.0324 60.7262 86.3632 60.5789C86.6523 60.4498 86.9076 60.2484 87.1992 60.1218C88.0536 59.7525 88.6264 60.5247 89.3402 60.8476C89.7101 61.0128 90.1215 61.1187 90.5278 61.1007C90.8586 61.0877 91.1581 60.889 91.4602 61.0438C92.8198 61.7411 96.1954 56.5658 96.1954 56.5658L97.6617 58.0765L101.941 62.5209L112.635 77.1301C112.635 77.1301 114.576 89.1026 115.909 96.9507C116.141 98.3038 117.058 101.23 117.24 102.255C117.201 102.033 108.111 101.974 107.621 101.974H89.0953C88.0561 101.974 85.2615 102.41 84.5322 101.653C83.6337 100.724 82.5943 96.4574 82.5396 95.2616C82.3599 91.2407 82.6387 87.2508 82.6934 83.2067C82.6698 84.8517 82.1933 86.3392 81.9901 87.9507C81.727 90.0245 81.3519 92.0956 81.0135 94.1589C80.7425 95.817 80.4821 97.4799 80.2736 99.1484C80.18 99.8999 80.2998 100.347 79.659 100.641C79.12 100.886 77.9453 100.651 77.315 100.757Z" fill="#253E5F"/>
<path d="M81.8287 97.3221C82.3235 97.1207 85.3787 96.3693 86.7564 96.0852C87.4779 95.938 90.7493 95.0962 91.507 95.0962C92.265 95.0962 93.2965 96.1704 93.2965 96.1704L93.0229 99.8659C92.2937 99.7937 91.3171 100.168 90.7935 100.24C90.27 100.313 88.491 100.323 87.3971 99.7781C87.3346 99.7471 87.2773 99.7136 87.2201 99.6801C86.78 100.067 86.2277 100.444 85.6157 100.475C85.6157 100.475 85.1364 100.426 85.1832 100.235C85.2041 100.142 85.5219 99.6619 85.8397 99.192C85.3708 99.6645 84.605 100.432 83.7222 100.475C83.7222 100.475 83.2429 100.426 83.2897 100.235C83.3159 100.122 83.7743 99.4423 84.144 98.9026C84.1389 98.9079 84.1311 98.9104 84.1285 98.9157C83.7403 99.254 82.8183 100.421 81.727 100.475C81.727 100.475 81.2477 100.426 81.2947 100.235C81.3103 100.166 81.4926 99.879 81.714 99.5457C81.391 99.7918 81.0447 100.006 80.6799 100.186C79.5001 100.765 78.8281 100.326 78.8281 100.186C78.8256 100.044 81.3337 97.5236 81.8287 97.3221Z" fill="#FFBB96"/>
<path d="M92.4527 93.0303C92.4527 93.0303 90.5513 94.0995 90.7206 96.372C90.89 98.6445 91.5775 101.279 94.4477 101.002C97.318 100.729 92.4527 93.0303 92.4527 93.0303Z" fill="#253E5F"/>
<path d="M93.9841 100.777C100.865 103.146 110.072 100.883 115.909 96.9502C119.566 94.4919 121.9 91.3695 121.506 88.3197C120.488 80.3967 114.209 62.2367 108.775 59.5871C105.082 57.7845 100.602 57.038 98.1047 56.7385C96.9325 56.5965 96.2007 56.563 96.2007 56.563L97.107 59.099L101.644 71.7841C101.813 79.3121 107.247 83.7823 106.166 85.5357C105.085 87.2841 96.5496 89.1719 92.0672 92.1649C90.8274 92.9966 89.2543 99.0112 93.9841 100.777Z" fill="#253E5F"/>
<path d="M101.644 71.7842C101.639 73.2124 101.839 74.6431 102.214 76.0272C102.592 77.4115 103.144 78.7465 103.785 80.0327C104.105 80.6756 104.446 81.3058 104.798 81.9281C105.144 82.5531 105.501 83.173 105.793 83.8083C105.936 84.1259 106.061 84.4539 106.111 84.7766C106.124 84.9342 106.137 85.0968 106.092 85.2337C106.082 85.3086 106.038 85.3653 106.012 85.4326C105.962 85.4919 105.928 85.5566 105.866 85.6134C105.4 86.0755 104.733 86.3881 104.1 86.6902C101.501 87.8652 98.7397 88.7355 96.1091 89.9081C94.7938 90.4942 93.4917 91.127 92.2804 91.9171L92.0564 92.0669C91.9809 92.1186 91.9107 92.1859 91.8377 92.2451C91.7036 92.3741 91.5871 92.52 91.4914 92.679C91.2984 92.9916 91.1682 93.3325 91.0668 93.6784C90.874 94.3732 90.7932 95.0884 90.7881 95.8039C90.8349 95.0937 90.9547 94.3835 91.1657 93.7094C91.3897 93.0405 91.736 92.3898 92.3846 92.0772C93.601 91.3284 94.9059 90.7317 96.2289 90.1818C97.5546 89.6394 98.8961 89.1255 100.243 88.6271C101.589 88.1209 102.943 87.6381 104.267 87.0388C104.918 86.7186 105.587 86.4166 106.142 85.8612C106.212 85.7941 106.269 85.7011 106.329 85.6212C106.374 85.5229 106.434 85.4301 106.449 85.3267C106.512 85.12 106.491 84.9161 106.473 84.7224C106.41 84.3402 106.269 83.9941 106.118 83.6636C105.808 83.0025 105.446 82.3854 105.095 81.7629C104.743 81.1405 104.389 80.5233 104.053 79.8958C102.712 77.3959 101.779 74.6456 101.644 71.7842Z" fill="white"/>
<path d="M83.8115 60.2663C84.4678 60.9119 87.3901 62.9752 90.177 62.9752C90.6707 62.9746 91.1633 62.9287 91.6485 62.8383C93.9874 62.415 95.9565 60.868 97.1078 59.0965C97.3178 58.7704 97.5032 58.4294 97.6626 58.0762C97.8708 57.6322 98.0193 57.1777 98.1053 56.7385C96.9331 56.5966 95.8133 56.3046 95.631 56.0981C95.4329 57.4514 93.7479 59.8944 91.1954 60.354C90.8946 60.4094 90.5897 60.4397 90.2838 60.4445H90.2785C89.0804 60.4652 88.161 60.0855 87.5334 59.7033C87.5281 59.7033 86.3117 58.7529 86.3066 58.7478L83.8115 60.2663Z" fill="#253E5F"/>
<path d="M81.977 89.7682C81.9841 89.6419 81.9678 89.5169 81.9723 89.3903C81.9776 89.2536 81.993 89.1198 82.0034 88.9833L82.0789 88.2012C82.1275 87.6687 82.1761 87.1359 82.2166 86.6028C82.2975 85.5459 82.3524 84.4873 82.3812 83.4278C82.4363 81.3099 82.4054 79.1871 82.2618 77.0737C82.2215 76.4824 82.1732 75.8916 82.1171 75.3016C82.0869 74.9988 82.0554 74.6962 82.0227 74.3936C81.9898 74.0969 81.9414 73.802 81.9375 73.5017C81.9352 73.3153 82.2176 73.3026 82.2599 73.4758C82.3845 73.9896 82.4028 74.5417 82.4565 75.0672C82.5075 75.595 82.5531 76.1227 82.5936 76.6525C82.6713 77.72 82.7228 78.7886 82.7482 79.8581C82.7942 81.9869 82.7177 84.1165 82.5346 86.2403C82.4835 86.8362 82.4219 87.4311 82.3499 88.0249C82.3131 88.3275 82.2724 88.6297 82.228 88.9313C82.2073 89.0647 82.1894 89.198 82.1637 89.3285C82.1316 89.482 82.074 89.6235 82.0417 89.777C82.024 89.8123 81.9727 89.799 81.977 89.7682Z" fill="white"/>
<path d="M82.5772 48.5529C82.5585 48.5529 82.5083 48.5239 82.5507 48.5239C82.5718 48.5239 82.6194 48.5529 82.5772 48.5529Z" fill="#FFBB96"/>
<path d="M41.6902 69.7692C42.6816 71.5054 42.211 74.1368 42.211 74.1368C42.211 74.1368 39.3742 73.3628 38.3829 71.6263C37.3915 69.8899 37.3281 68.0672 38.2407 67.554C39.1546 67.0401 40.6988 68.0327 41.6902 69.7692Z" fill="white"/>
<path d="M44.6511 55.6203C44.8922 58.6422 42.5415 61.9659 42.5415 61.9659C42.5415 61.9659 39.136 59.0952 38.8947 56.0732C38.6536 53.0513 39.7458 50.5011 41.3349 50.375C42.9259 50.249 44.4098 52.5983 44.6511 55.6203Z" fill="white"/>
<path d="M60.8456 61.1778C62.4429 62.432 63.0129 65.0778 63.0129 65.0778C63.0129 65.0778 60.0546 65.4237 58.4573 64.1697C56.8601 62.9154 56.1 61.2299 56.7587 60.4034C57.4187 59.5763 59.2485 59.9237 60.8456 61.1778Z" fill="white"/>
<path d="M42.5614 84.5449V87.514L45.2645 90.7085H33.9096C30.4774 90.7085 27.6934 87.948 27.6934 84.5449C27.6934 81.1418 30.4774 78.3813 33.9096 78.3813H36.3451C39.7795 78.3813 42.5614 81.1418 42.5614 84.5449Z" fill="#BBC3CD"/>
<path d="M37.7714 84.5342C37.7715 84.8248 37.888 85.1034 38.0952 85.3089C38.3024 85.5144 38.5834 85.6299 38.8765 85.6301C39.1696 85.6299 39.4506 85.5144 39.6578 85.3089C39.865 85.1034 39.9815 84.8248 39.9816 84.5342C39.9814 84.2436 39.8649 83.965 39.6577 83.7596C39.4505 83.5541 39.1695 83.4386 38.8765 83.4385C38.5835 83.4386 38.3024 83.554 38.0952 83.7595C37.888 83.965 37.7715 84.2436 37.7714 84.5342ZM34.0159 84.5342C34.0161 84.8248 34.1326 85.1034 34.3398 85.3089C34.5471 85.5143 34.8281 85.6298 35.1212 85.6299C35.4142 85.6297 35.6952 85.5142 35.9024 85.3088C36.1096 85.1033 36.2261 84.8247 36.2262 84.5342C36.2261 84.2436 36.1096 83.965 35.9024 83.7596C35.6952 83.5541 35.4142 83.4386 35.1212 83.4385C34.8281 83.4386 34.5471 83.554 34.3398 83.7595C34.1326 83.965 34.0161 84.2436 34.0159 84.5342ZM30.2607 84.5342C30.2609 84.8247 30.3774 85.1033 30.5846 85.3088C30.7918 85.5142 31.0728 85.6297 31.3658 85.6299C31.6589 85.6298 31.9399 85.5143 32.1472 85.3089C32.3544 85.1034 32.4709 84.8248 32.4711 84.5342C32.4709 84.2436 32.3544 83.965 32.1472 83.7595C31.9399 83.554 31.6589 83.4386 31.3658 83.4385C31.0728 83.4386 30.7918 83.5541 30.5846 83.7596C30.3774 83.965 30.2609 84.2436 30.2607 84.5342Z" fill="white"/>
<path d="M69.3591 38.796L72.9074 47.3737C72.9651 47.5131 72.9946 47.6624 72.9942 47.8131C72.9938 47.9638 72.9634 48.113 72.9048 48.252C72.8463 48.3911 72.7606 48.5174 72.6529 48.6236C72.5451 48.7299 72.4172 48.814 72.2767 48.8713L57.2523 54.9809C57.0311 55.0707 56.7872 55.0903 56.5543 55.0371C56.3213 54.9838 56.1108 54.8603 55.9516 54.6835C55.8635 54.5864 55.793 54.475 55.7431 54.3541L52.1964 45.78C52.1386 45.6408 52.109 45.4916 52.1094 45.341C52.1097 45.1905 52.14 45.0415 52.1985 44.9025C52.257 44.7636 52.3425 44.6374 52.4502 44.5313C52.5579 44.4251 52.6857 44.3411 52.8261 44.2839L67.8503 38.173C68.4403 37.9332 69.1135 38.2114 69.3591 38.796Z" fill="#BBC3CD"/>
<path d="M63.1708 46.9697L72.6869 48.0087C72.6549 48.1427 72.5912 48.2672 72.501 48.3719C72.4108 48.4765 72.2967 48.5584 72.1683 48.6107L57.1457 54.7212C57.018 54.7731 56.8797 54.7942 56.7421 54.7828C56.6046 54.7714 56.4717 54.7278 56.3545 54.6557L63.1708 46.9697Z" fill="#BBC3CD" stroke="white" stroke-width="2.882"/>
<path d="M52.4583 45.6732C52.4147 45.5681 52.3923 45.4554 52.3926 45.3418C52.3928 45.2281 52.4157 45.1157 52.4598 45.0108C52.5039 44.9059 52.5684 44.8107 52.6496 44.7306C52.7309 44.6504 52.8273 44.5869 52.9332 44.5438H52.9334L67.9576 38.4328C68.1493 38.355 68.3626 38.3472 68.5596 38.4107C68.7566 38.4743 68.9244 38.6051 69.0332 38.7799L63.2319 47.8045L52.5808 45.9688L52.4583 45.6732Z" fill="#BBC3CD" stroke="white" stroke-width="2.882"/>
<path d="M132.263 95.8481C130.211 97.9186 126.374 97.4822 126.374 97.4822C126.374 97.4822 125.866 93.6882 127.92 91.6189C129.972 89.5482 133.807 89.9834 133.807 89.9834C133.807 89.9834 134.315 93.7774 132.263 95.8481Z" fill="white"/>
<path d="M29.5512 38.6113C30.1967 39.7836 31.9506 40.0691 31.9506 40.0691C31.9506 40.0691 32.6566 38.4531 32.0101 37.281C31.3647 36.1084 29.612 35.8228 29.612 35.8228C29.612 35.8228 28.9058 37.4387 29.5512 38.6113Z" fill="white"/>
<path d="M137.468 38.2918C138.832 37.1226 138.713 34.7664 138.713 34.7664C138.713 34.7664 136.38 34.3074 135.016 35.4778C133.651 36.647 133.77 39.002 133.77 39.002C133.77 39.002 136.103 39.4611 137.468 38.2918Z" fill="white"/>
<path d="M133.099 29.4876C133.516 28.2977 132.606 26.9019 132.606 26.9019C132.606 26.9019 131.02 27.4364 130.604 28.6268C130.186 29.8169 131.095 31.2121 131.095 31.2121C131.095 31.2121 132.682 30.6776 133.099 29.4876Z" fill="white"/>
<path fill-rule="evenodd" clip-rule="evenodd" d="M142.598 78.3623V68.5562C142.598 68.3199 142.504 68.0933 142.335 67.9262C142.167 67.7591 141.938 67.6651 141.7 67.665H127.321C127.082 67.6651 126.854 67.7591 126.685 67.9262C126.517 68.0933 126.422 68.3199 126.422 68.5562V79.7184C126.422 80.732 127.497 81.3921 128.412 80.9404L131.446 79.4438C131.634 79.3508 131.842 79.3019 132.052 79.3009L141.704 79.2535C141.942 79.2521 142.169 79.1576 142.337 78.9907C142.504 78.8237 142.598 78.5978 142.598 78.3623Z" fill="#B7EB8F"/>
<path d="M134.383 73.3317C134.367 73.3482 134.354 73.3677 134.345 73.3893C134.336 73.4108 134.331 73.4338 134.331 73.4571C134.331 73.4804 134.336 73.5035 134.345 73.525C134.353 73.5465 134.367 73.5661 134.383 73.5826C134.4 73.599 134.419 73.6121 134.441 73.621C134.463 73.63 134.486 73.6345 134.509 73.6346C134.533 73.6346 134.556 73.63 134.578 73.6211C134.6 73.6122 134.619 73.5991 134.636 73.5827C134.669 73.5494 134.688 73.5043 134.688 73.4573C134.688 73.4102 134.669 73.3651 134.636 73.3318C134.602 73.2985 134.557 73.2798 134.51 73.2798C134.462 73.2798 134.417 73.2985 134.383 73.3317ZM137.6 73.3317C137.583 73.3482 137.57 73.3678 137.561 73.3893C137.552 73.4108 137.547 73.4339 137.547 73.4572C137.547 73.4805 137.552 73.5036 137.561 73.5252C137.57 73.5467 137.583 73.5663 137.599 73.5828C137.616 73.5992 137.636 73.6123 137.657 73.6213C137.679 73.6302 137.702 73.6348 137.726 73.6348C137.749 73.6348 137.773 73.6302 137.794 73.6213C137.816 73.6124 137.836 73.5993 137.852 73.5829C137.886 73.5496 137.905 73.5044 137.905 73.4574C137.905 73.4103 137.886 73.3651 137.852 73.3318C137.819 73.2985 137.773 73.2798 137.726 73.2798C137.679 73.2798 137.633 73.2985 137.6 73.3317ZM131.167 73.3317C131.15 73.3482 131.137 73.3677 131.128 73.3893C131.119 73.4108 131.114 73.4338 131.114 73.4571C131.114 73.4804 131.119 73.5035 131.128 73.525C131.137 73.5465 131.15 73.5661 131.167 73.5826C131.183 73.599 131.203 73.6121 131.224 73.621C131.246 73.63 131.269 73.6345 131.293 73.6346C131.316 73.6346 131.339 73.63 131.361 73.6211C131.383 73.6122 131.403 73.5991 131.419 73.5827C131.453 73.5494 131.471 73.5043 131.472 73.4573C131.472 73.4102 131.453 73.3651 131.419 73.3318C131.386 73.2985 131.34 73.2798 131.293 73.2798C131.246 73.2798 131.2 73.2985 131.167 73.3317Z" stroke="white" stroke-width="9.041" stroke-linecap="round" stroke-linejoin="round"/>
<path d="M46.4656 44.3359L44.6801 44.8246C42.9052 45.3104 41.0689 44.2774 40.579 42.5174C40.0891 40.7573 41.1309 38.9368 42.906 38.451C44.6809 37.9653 46.5172 38.9982 47.0071 40.7583L47.155 41.2893C47.2154 41.5224 47.1811 41.7698 47.0594 41.9782C46.9377 42.1865 46.7383 42.3391 46.5043 42.4032C46.2702 42.4672 46.0201 42.4376 45.8079 42.3207C45.5956 42.2037 45.4382 42.0088 45.3694 41.7779L45.2215 41.2469M45.2215 41.2469C45.1698 41.0609 45.0815 40.8869 44.9619 40.7347C44.8423 40.5825 44.6936 40.4551 44.5244 40.3599C44.3551 40.2647 44.1686 40.2034 43.9755 40.1797C43.7824 40.1559 43.5864 40.1701 43.3988 40.2214C43.1163 40.2988 42.8632 40.4574 42.6716 40.6773C42.48 40.8972 42.3585 41.1685 42.3224 41.4569C42.2864 41.7453 42.3373 42.0378 42.4689 42.2975C42.6005 42.5572 42.8068 42.7723 43.0617 42.9157C43.3166 43.0592 43.6087 43.1244 43.901 43.1032C44.1933 43.0821 44.4727 42.9754 44.7039 42.7968C44.9351 42.6182 45.1077 42.3756 45.1998 42.0997C45.2919 41.8238 45.2995 41.5271 45.2215 41.2469Z" stroke="#BBC3CD" stroke-width="4.302" stroke-linecap="round" stroke-linejoin="round"/>
<path d="M125.301 57.4881C126.882 56.4128 127.037 53.9094 127.037 53.9094C127.037 53.9094 124.628 53.1509 123.047 54.2275C121.465 55.3027 121.31 57.8047 121.31 57.8047C121.31 57.8047 123.719 58.5635 125.301 57.4881Z" fill="#BBC3CD"/>
<path d="M127.721 40.1062C129.308 40.1062 130.594 41.3816 130.594 42.955C130.594 44.5283 129.308 45.8037 127.721 45.8037C126.134 45.8037 124.848 44.5283 124.848 42.955C124.848 41.3816 126.134 40.1062 127.721 40.1062Z" fill="#BBC3CD"/>
<path d="M137.174 57.9679C138.138 57.9679 138.919 58.7423 138.919 59.6976C138.919 60.6529 138.138 61.4272 137.174 61.4272C136.211 61.4272 135.43 60.6529 135.43 59.6976C135.43 58.7423 136.211 57.9679 137.174 57.9679Z" fill="#BBC3CD"/>
<path d="M140.047 89.5723L137.481 87.1306L140.047 84.689L142.612 87.1306L140.047 89.5723Z" stroke="#BBC3CD" stroke-width="5.308" stroke-linecap="round" stroke-linejoin="round"/>
<path d="M86.0471 102.204H53.9871L44.3418 78.4243H76.3546L86.0471 102.204Z" fill="#B7EB8F"/>
<path d="M61.0536 90.2539C60.6424 88.822 61.4715 87.6611 62.9027 87.6611C64.3338 87.6611 65.8251 88.822 66.2364 90.2539C66.6476 91.6857 65.8185 92.8468 64.3873 92.8468C62.9562 92.8468 61.4648 91.6857 61.0536 90.2539Z" fill="white"/>
</svg>
