<svg width="18" height="18" viewBox="0 0 18 18" fill="none" xmlns="http://www.w3.org/2000/svg">
<path d="M9.00033 17.3332C4.39783 17.3332 0.666992 13.6023 0.666992 8.99984C0.666992 4.39734 4.39783 0.666504 9.00033 0.666504C13.6028 0.666504 17.3337 4.39734 17.3337 8.99984C17.3337 13.6023 13.6028 17.3332 9.00033 17.3332ZM9.00033 15.6665C10.7684 15.6665 12.4641 14.9641 13.7144 13.7139C14.9646 12.4636 15.667 10.7679 15.667 8.99984C15.667 7.23173 14.9646 5.53603 13.7144 4.28579C12.4641 3.03555 10.7684 2.33317 9.00033 2.33317C7.23222 2.33317 5.53652 3.03555 4.28628 4.28579C3.03604 5.53603 2.33366 7.23173 2.33366 8.99984C2.33366 10.7679 3.03604 12.4636 4.28628 13.7139C5.53652 14.9641 7.23222 15.6665 9.00033 15.6665ZM9.00033 11.4998C8.33728 11.4998 7.7014 11.2364 7.23256 10.7676C6.76372 10.2988 6.50033 9.66288 6.50033 8.99984C6.50033 8.3368 6.76372 7.70091 7.23256 7.23207C7.7014 6.76323 8.33728 6.49984 9.00033 6.49984C9.66337 6.49984 10.2993 6.76323 10.7681 7.23207C11.2369 7.70091 11.5003 8.3368 11.5003 8.99984C11.5003 9.66288 11.2369 10.2988 10.7681 10.7676C10.2993 11.2364 9.66337 11.4998 9.00033 11.4998Z" fill="#FAAD14"/>
</svg>
