<svg width="17" height="18" viewBox="0 0 17 18" fill="none" xmlns="http://www.w3.org/2000/svg">
<path d="M8.50033 17.3332C3.89783 17.3332 0.166992 13.6023 0.166992 8.99984C0.166992 4.39734 3.89783 0.666504 8.50033 0.666504C13.1028 0.666504 16.8337 4.39734 16.8337 8.99984C16.8337 13.6023 13.1028 17.3332 8.50033 17.3332ZM8.50033 15.6665C10.2684 15.6665 11.9641 14.9641 13.2144 13.7139C14.4646 12.4636 15.167 10.7679 15.167 8.99984C15.167 7.23173 14.4646 5.53603 13.2144 4.28579C11.9641 3.03555 10.2684 2.33317 8.50033 2.33317C6.73222 2.33317 5.03652 3.03555 3.78628 4.28579C2.53604 5.53603 1.83366 7.23173 1.83366 8.99984C1.83366 10.7679 2.53604 12.4636 3.78628 13.7139C5.03652 14.9641 6.73222 15.6665 8.50033 15.6665ZM7.66949 12.3332L4.13366 8.79734L5.31199 7.619L7.66949 9.9765L12.3828 5.26234L13.562 6.44067L7.66949 12.3332Z" fill="#52C41A"/>
</svg>
