<svg width="21" height="20" viewBox="0 0 21 20" fill="none" xmlns="http://www.w3.org/2000/svg">
<g clip-path="url(#clip0_14_32882)">
<path d="M10.5003 18.3332C5.89783 18.3332 2.16699 14.6023 2.16699 9.99984C2.16699 5.39734 5.89783 1.6665 10.5003 1.6665C15.1028 1.6665 18.8337 5.39734 18.8337 9.99984C18.8337 14.6023 15.1028 18.3332 10.5003 18.3332ZM10.5003 16.6665C12.2684 16.6665 13.9641 15.9641 15.2144 14.7139C16.4646 13.4636 17.167 11.7679 17.167 9.99984C17.167 8.23173 16.4646 6.53603 15.2144 5.28579C13.9641 4.03555 12.2684 3.33317 10.5003 3.33317C8.73222 3.33317 7.03652 4.03555 5.78628 5.28579C4.53604 6.53603 3.83366 8.23173 3.83366 9.99984C3.83366 11.7679 4.53604 13.4636 5.78628 14.7139C7.03652 15.9641 8.73222 16.6665 10.5003 16.6665ZM9.66699 12.4998H11.3337V14.1665H9.66699V12.4998ZM9.66699 5.83317H11.3337V10.8332H9.66699V5.83317Z" fill="#253E5F"/>
</g>
<defs>
<clipPath id="clip0_14_32882">
<rect width="20" height="20" fill="white" transform="translate(0.5)"/>
</clipPath>
</defs>
</svg>
