<svg width="20" height="20" viewBox="0 0 20 20" fill="none" xmlns="http://www.w3.org/2000/svg">
<g clip-path="url(#clip0_14_32864)">
<path d="M10.0003 18.3332C5.39783 18.3332 1.66699 14.6023 1.66699 9.99984C1.66699 5.39734 5.39783 1.6665 10.0003 1.6665C14.6028 1.6665 18.3337 5.39734 18.3337 9.99984C18.3337 14.6023 14.6028 18.3332 10.0003 18.3332ZM10.0003 16.6665C11.7684 16.6665 13.4641 15.9641 14.7144 14.7139C15.9646 13.4636 16.667 11.7679 16.667 9.99984C16.667 8.23173 15.9646 6.53603 14.7144 5.28579C13.4641 4.03555 11.7684 3.33317 10.0003 3.33317C8.23222 3.33317 6.53652 4.03555 5.28628 5.28579C4.03604 6.53603 3.33366 8.23173 3.33366 9.99984C3.33366 11.7679 4.03604 13.4636 5.28628 14.7139C6.53652 15.9641 8.23222 16.6665 10.0003 16.6665ZM5.83366 9.1665H14.167V10.8332H5.83366V9.1665Z" fill="#F5222D"/>
</g>
<defs>
<clipPath id="clip0_14_32864">
<rect width="20" height="20" fill="white"/>
</clipPath>
</defs>
</svg>
