<svg width="20" height="20" viewBox="0 0 20 20" fill="none" xmlns="http://www.w3.org/2000/svg">
<g clip-path="url(#clip0_14_36945)">
<path d="M10.8337 10.8332V15.4873L12.3571 13.964L13.5362 15.1432L10.0004 18.6782L6.46457 15.1432L7.64373 13.964L9.16707 15.4873V10.8332H10.8337ZM10.0004 1.6665C11.4312 1.66657 12.8121 2.19243 13.8806 3.1441C14.949 4.09577 15.6305 5.40689 15.7954 6.82817C16.8323 7.11093 17.7368 7.74909 18.351 8.63111C18.9651 9.51313 19.2497 10.5829 19.1551 11.6535C19.0605 12.7241 18.5926 13.7274 17.8334 14.488C17.0741 15.2487 16.0716 15.7183 15.0012 15.8148V14.1365C15.3847 14.0817 15.7534 13.9511 16.0859 13.7523C16.4183 13.5535 16.7079 13.2904 16.9375 12.9785C17.1672 12.6666 17.3325 12.312 17.4236 11.9355C17.5148 11.559 17.53 11.1682 17.4685 10.7857C17.4069 10.4033 17.2698 10.0369 17.0652 9.70805C16.8605 9.37917 16.5924 9.09435 16.2764 8.87023C15.9605 8.6461 15.603 8.48716 15.225 8.40268C14.8469 8.3182 14.4559 8.30986 14.0746 8.37817C14.2051 7.77057 14.198 7.14148 14.0539 6.53696C13.9098 5.93245 13.6323 5.36782 13.2417 4.88444C12.8512 4.40107 12.3574 4.01118 11.7966 3.74333C11.2359 3.47549 10.6223 3.33648 10.0008 3.33648C9.37936 3.33648 8.76578 3.47549 8.20501 3.74333C7.64423 4.01118 7.15048 4.40107 6.7599 4.88444C6.36933 5.36782 6.09182 5.93245 5.94772 6.53696C5.80361 7.14148 5.79656 7.77057 5.92707 8.37817C5.16678 8.2354 4.38091 8.40049 3.74235 8.83714C3.10379 9.27379 2.66484 9.94622 2.52207 10.7065C2.37929 11.4668 2.54439 12.2527 2.98104 12.8912C3.41768 13.5298 4.09011 13.9687 4.8504 14.1115L5.0004 14.1365V15.8148C3.92994 15.7184 2.9274 15.2489 2.16801 14.4883C1.40862 13.7277 0.940673 12.7245 0.845962 11.6539C0.751251 10.5833 1.0358 9.51341 1.64987 8.63132C2.26395 7.74922 3.16849 7.11099 4.2054 6.82817C4.37016 5.40682 5.05157 4.0956 6.12005 3.14389C7.18853 2.19219 8.56953 1.66639 10.0004 1.6665Z" fill="#1890FF"/>
</g>
<defs>
<clipPath id="clip0_14_36945">
<rect width="20" height="20" fill="white"/>
</clipPath>
</defs>
</svg>
