<svg width="20" height="20" viewBox="0 0 20 20" fill="none" xmlns="http://www.w3.org/2000/svg">
<g clip-path="url(#clip0_3147_86)">
<path d="M0.472188 6.95656C0.165859 7.91625 -3.90556e-05 8.93863 6.89667e-09 9.99992C-3.90556e-05 11.0613 0.165898 12.0837 0.472227 13.0434L10 13.4782L19.5278 13.0435C19.8341 12.0838 20 11.0613 20 10C20 8.93867 19.8341 7.91625 19.5278 6.95652L10 6.52176L0.472188 6.95656Z" fill="#F0F0F0"/>
<path d="M19.5278 6.95656L10.0001 6.5218L0.472246 6.95656C0.381465 7.24109 0.303301 7.53121 0.237793 7.82613H19.7622C19.6967 7.53117 19.6186 7.24102 19.5278 6.95656Z" fill="#D80027"/>
<path d="M0.237793 12.1739C0.303223 12.4688 0.381387 12.7589 0.472168 13.0434L0.473105 13.0434L9.9999 13.4782L19.5277 13.0434C19.6185 12.7589 19.6966 12.4688 19.7621 12.1739H0.237793Z" fill="#D80027"/>
<path d="M9.9999 20.0001C14.4615 20.0001 18.24 17.0781 19.5277 13.0436H0.472168C1.75986 17.0781 5.53846 20.0001 9.9999 20.0001Z" fill="#6DA544"/>
<path d="M9.99994 3.81474e-05C5.53846 7.72099e-05 1.75994 2.92207 0.472168 6.95656L19.5277 6.9566C18.2401 2.92203 14.4615 -9.15134e-07 9.99994 3.81474e-05Z" fill="#338AF3"/>
<path d="M4.56996 4.13048C4.56996 3.19388 5.2282 2.41146 6.10723 2.2195C5.97215 2.18997 5.83195 2.174 5.68797 2.174C4.60742 2.174 3.73145 3.04993 3.73145 4.13052C3.73145 5.21111 4.60734 6.08704 5.68797 6.08704C5.83195 6.08704 5.97211 6.07103 6.10723 6.04153C5.22824 5.8495 4.56996 5.06708 4.56996 4.13048Z" fill="#F0F0F0"/>
<path d="M7.26373 5.01981L7.39615 5.42742H7.82475L7.47803 5.67938L7.61045 6.08699L7.26373 5.83508L6.91693 6.08699L7.04939 5.67938L6.70264 5.42742H7.13123L7.26373 5.01981Z" fill="#F0F0F0"/>
<path d="M8.63182 5.01981L8.76428 5.42742H9.19287L8.84611 5.67938L8.97857 6.08699L8.63182 5.83508L8.28506 6.08699L8.41752 5.67938L8.0708 5.42742H8.49936L8.63182 5.01981Z" fill="#F0F0F0"/>
<path d="M9.99957 5.01981L10.132 5.42742H10.5606L10.2139 5.67938L10.3463 6.08699L9.99957 5.83508L9.65277 6.08699L9.78527 5.67938L9.43848 5.42742H9.86711L9.99957 5.01981Z" fill="#F0F0F0"/>
<path d="M11.3677 5.01981L11.5002 5.42742H11.9288L11.582 5.67938L11.7145 6.08699L11.3677 5.83508L11.0209 6.08699L11.1534 5.67938L10.8066 5.42742H11.2352L11.3677 5.01981Z" fill="#F0F0F0"/>
<path d="M12.7358 5.01981L12.8683 5.42742H13.2969L12.9502 5.67938L13.0826 6.08699L12.7358 5.83508L12.3891 6.08699L12.5215 5.67938L12.1748 5.42742H12.6034L12.7358 5.01981Z" fill="#F0F0F0"/>
<path d="M8.63182 3.59687L8.76428 4.00445H9.19287L8.84611 4.25644L8.97857 4.66402L8.63182 4.4121L8.28506 4.66402L8.41752 4.25644L8.0708 4.00445H8.49936L8.63182 3.59687Z" fill="#F0F0F0"/>
<path d="M9.99957 3.59687L10.132 4.00445H10.5606L10.2139 4.25644L10.3463 4.66402L9.99957 4.4121L9.65277 4.66402L9.78527 4.25644L9.43848 4.00445H9.86711L9.99957 3.59687Z" fill="#F0F0F0"/>
<path d="M11.3677 3.59687L11.5002 4.00445H11.9288L11.582 4.25644L11.7145 4.66402L11.3677 4.4121L11.0209 4.66402L11.1534 4.25644L10.8066 4.00445H11.2352L11.3677 3.59687Z" fill="#F0F0F0"/>
<path d="M12.7358 3.59687L12.8683 4.00445H13.2969L12.9502 4.25644L13.0826 4.66402L12.7358 4.4121L12.3891 4.66402L12.5215 4.25644L12.1748 4.00445H12.6034L12.7358 3.59687Z" fill="#F0F0F0"/>
<path d="M9.99957 2.1739L10.132 2.58156H10.5606L10.2139 2.83347L10.3463 3.24113L9.99957 2.98922L9.65277 3.24113L9.78527 2.83347L9.43848 2.58156H9.86711L9.99957 2.1739Z" fill="#F0F0F0"/>
<path d="M11.3677 2.1739L11.5002 2.58156H11.9288L11.582 2.83347L11.7145 3.24113L11.3677 2.98922L11.0209 3.24113L11.1534 2.83347L10.8066 2.58156H11.2352L11.3677 2.1739Z" fill="#F0F0F0"/>
<path d="M12.7358 2.1739L12.8683 2.58156H13.2969L12.9502 2.83347L13.0826 3.24113L12.7358 2.98922L12.3891 3.24113L12.5215 2.83347L12.1748 2.58156H12.6034L12.7358 2.1739Z" fill="#F0F0F0"/>
</g>
<defs>
<clipPath id="clip0_3147_86">
<rect width="20" height="20" fill="white"/>
</clipPath>
</defs>
</svg>
