<svg width="20" height="20" viewBox="0 0 20 20" fill="none" xmlns="http://www.w3.org/2000/svg">
<g clip-path="url(#clip0_14_29624)">
<path d="M3.33366 6.6665H16.667V17.4998C16.667 17.7208 16.5792 17.9328 16.4229 18.0891C16.2666 18.2454 16.0547 18.3332 15.8337 18.3332H4.16699C3.94598 18.3332 3.73402 18.2454 3.57774 18.0891C3.42146 17.9328 3.33366 17.7208 3.33366 17.4998V6.6665ZM5.00033 8.33317V16.6665H15.0003V8.33317H5.00033ZM7.50033 9.99984H9.16699V14.9998H7.50033V9.99984ZM10.8337 9.99984H12.5003V14.9998H10.8337V9.99984ZM5.83366 4.1665V2.49984C5.83366 2.27882 5.92146 2.06686 6.07774 1.91058C6.23402 1.7543 6.44598 1.6665 6.66699 1.6665H13.3337C13.5547 1.6665 13.7666 1.7543 13.9229 1.91058C14.0792 2.06686 14.167 2.27882 14.167 2.49984V4.1665H18.3337V5.83317H1.66699V4.1665H5.83366ZM7.50033 3.33317V4.1665H12.5003V3.33317H7.50033Z" fill="#929FAF"/>
</g>
<defs>
<clipPath id="clip0_14_29624">
<rect width="20" height="20" fill="white"/>
</clipPath>
</defs>
</svg>
