<svg width="20" height="20" viewBox="0 0 20 20" fill="none" xmlns="http://www.w3.org/2000/svg">
<g clip-path="url(#clip0_912_124)">
<path d="M4.16659 18.3333C3.94557 18.3333 3.73361 18.2455 3.57733 18.0892C3.42105 17.933 3.33325 17.721 3.33325 17.5V2.49999C3.33325 2.27898 3.42105 2.06701 3.57733 1.91073C3.73361 1.75445 3.94557 1.66666 4.16659 1.66666H15.8333C16.0543 1.66666 16.2662 1.75445 16.4225 1.91073C16.5788 2.06701 16.6666 2.27898 16.6666 2.49999V4.99999H14.9999V3.33332H4.99992V16.6667H14.9999V15H16.6666V17.5C16.6666 17.721 16.5788 17.933 16.4225 18.0892C16.2662 18.2455 16.0543 18.3333 15.8333 18.3333H4.16659ZM14.9999 13.3333V10.8333H9.16658V9.16666H14.9999V6.66666L19.1666 9.99999L14.9999 13.3333Z" fill="#929FAF"/>
</g>
<defs>
<clipPath id="clip0_912_124">
<rect width="20" height="20" fill="white"/>
</clipPath>
</defs>
</svg>
