<svg width="19" height="19" viewBox="0 0 19 19" fill="none" xmlns="http://www.w3.org/2000/svg">
<path d="M0.666748 18.3333C0.666748 16.5652 1.36913 14.8695 2.61937 13.6193C3.86961 12.369 5.5653 11.6667 7.33341 11.6667C9.10152 11.6667 10.7972 12.369 12.0475 13.6193C13.2977 14.8695 14.0001 16.5652 14.0001 18.3333H12.3334C12.3334 17.0072 11.8066 15.7355 10.8689 14.7978C9.93127 13.8601 8.6595 13.3333 7.33341 13.3333C6.00733 13.3333 4.73556 13.8601 3.79788 14.7978C2.8602 15.7355 2.33341 17.0072 2.33341 18.3333H0.666748ZM7.33341 10.8333C4.57091 10.8333 2.33341 8.59583 2.33341 5.83333C2.33341 3.07083 4.57091 0.833328 7.33341 0.833328C10.0959 0.833328 12.3334 3.07083 12.3334 5.83333C12.3334 8.59583 10.0959 10.8333 7.33341 10.8333ZM7.33341 9.16666C9.17508 9.16666 10.6667 7.67499 10.6667 5.83333C10.6667 3.99166 9.17508 2.49999 7.33341 2.49999C5.49175 2.49999 4.00008 3.99166 4.00008 5.83333C4.00008 7.67499 5.49175 9.16666 7.33341 9.16666ZM14.2367 12.2525C15.4079 12.7799 16.4017 13.6344 17.0989 14.7131C17.7961 15.7918 18.1669 17.0489 18.1667 18.3333H16.5001C16.5003 17.37 16.2222 16.4271 15.6993 15.618C15.1764 14.8089 14.431 14.168 13.5526 13.7725L14.2359 12.2525H14.2367ZM13.6634 2.84416C14.503 3.19024 15.2209 3.77794 15.7259 4.53269C16.231 5.28743 16.5004 6.1752 16.5001 7.08333C16.5004 8.22694 16.0732 9.32935 15.3022 10.174C14.5312 11.0187 13.4723 11.5446 12.3334 11.6483V9.97083C12.9509 9.88239 13.5237 9.59834 13.9678 9.16038C14.412 8.72241 14.704 8.1536 14.801 7.53744C14.8981 6.92128 14.7951 6.29024 14.5071 5.73696C14.2191 5.18367 13.7613 4.73728 13.2009 4.46333L13.6634 2.84416Z" fill="#929FAF"/>
</svg>
