<svg width="20" height="20" viewBox="0 0 20 20" fill="none" xmlns="http://www.w3.org/2000/svg">
<g clip-path="url(#clip0_912_89)">
<path d="M5.83341 4.16667V1.66667C5.83341 1.44565 5.92121 1.23369 6.07749 1.07741C6.23377 0.921129 6.44573 0.833332 6.66675 0.833332H13.3334C13.5544 0.833332 13.7664 0.921129 13.9227 1.07741C14.079 1.23369 14.1667 1.44565 14.1667 1.66667V4.16667H17.5001C17.7211 4.16667 17.9331 4.25446 18.0893 4.41074C18.2456 4.56702 18.3334 4.77898 18.3334 5V16.6667C18.3334 16.8877 18.2456 17.0996 18.0893 17.2559C17.9331 17.4122 17.7211 17.5 17.5001 17.5H2.50008C2.27907 17.5 2.06711 17.4122 1.91083 17.2559C1.75455 17.0996 1.66675 16.8877 1.66675 16.6667V5C1.66675 4.77898 1.75455 4.56702 1.91083 4.41074C2.06711 4.25446 2.27907 4.16667 2.50008 4.16667H5.83341ZM3.33341 13.3333V15.8333H16.6667V13.3333H3.33341ZM3.33341 11.6667H16.6667V5.83333H3.33341V11.6667ZM7.50008 2.5V4.16667H12.5001V2.5H7.50008ZM9.16675 9.16667H10.8334V10.8333H9.16675V9.16667Z" fill="#929FAF"/>
</g>
<defs>
<clipPath id="clip0_912_89">
<rect width="20" height="20" fill="white"/>
</clipPath>
</defs>
</svg>
