<svg width="20.000000" height="20.000000" viewBox="0 0 20 20" fill="none" xmlns="http://www.w3.org/2000/svg" xmlns:xlink="http://www.w3.org/1999/xlink">
	<desc>
			Created with Pixso.
	</desc>
	<defs>
		<clipPath id="clip23_286">
			<rect id="Frame" rx="-0.500000" width="19.000000" height="19.000000" transform="translate(0.500000 0.500000)" fill="white" fill-opacity="0"/>
		</clipPath>
	</defs>
	<rect id="Frame" rx="-0.500000" width="19.000000" height="19.000000" transform="translate(0.500000 0.500000)" fill="#FFFFFF" fill-opacity="0"/>
	<g clip-path="url(#clip23_286)">
		<path id="Vector" d="M18.33 5.83L19.16 5.83L19.16 14.16L18.33 14.16L18.33 16.66C18.33 16.88 18.24 17.09 18.08 17.25C17.93 17.41 17.72 17.5 17.5 17.5L2.5 17.5C2.27 17.5 2.06 17.41 1.91 17.25C1.75 17.09 1.66 16.88 1.66 16.66L1.66 3.33C1.66 3.11 1.75 2.9 1.91 2.74C2.06 2.58 2.27 2.5 2.5 2.5L17.5 2.5C17.72 2.5 17.93 2.58 18.08 2.74C18.24 2.9 18.33 3.11 18.33 3.33L18.33 5.83ZM16.66 14.16L11.66 14.16C10.56 14.16 9.5 13.72 8.72 12.94C7.93 12.16 7.5 11.1 7.5 10C7.5 8.89 7.93 7.83 8.72 7.05C9.5 6.27 10.56 5.83 11.66 5.83L16.66 5.83L16.66 4.16L3.33 4.16L3.33 15.83L16.66 15.83L16.66 14.16ZM17.5 12.5L17.5 7.5L11.66 7.5C11 7.5 10.36 7.76 9.89 8.23C9.43 8.7 9.16 9.33 9.16 10C9.16 10.66 9.43 11.29 9.89 11.76C10.36 12.23 11 12.5 11.66 12.5L17.5 12.5ZM11.66 9.16L14.16 9.16L14.16 10.83L11.66 10.83L11.66 9.16Z" fill="#BBC3CD" fill-opacity="1.000000" fill-rule="nonzero"/>
	</g>
</svg>
