<svg width="20" height="20" viewBox="0 0 20 20" fill="none" xmlns="http://www.w3.org/2000/svg">
<g clip-path="url(#clip0_912_98)">
<path d="M1.84405 11.7167C1.60439 10.5848 1.60439 9.41523 1.84405 8.28333C2.76905 8.39167 3.57738 8.08583 3.84072 7.44917C4.10488 6.81167 3.75072 6.02417 3.01905 5.44667C3.64992 4.47694 4.47682 3.65003 5.44655 3.01917C6.02322 3.75 6.81155 4.105 7.44905 3.84083C8.08655 3.57667 8.39238 2.76917 8.28322 1.84417C9.41511 1.60451 10.5847 1.60451 11.7166 1.84417C11.6082 2.76917 11.9141 3.5775 12.5507 3.84083C13.1882 4.105 13.9757 3.75083 14.5532 3.01917C15.5229 3.65003 16.3499 4.47694 16.9807 5.44667C16.2499 6.02333 15.8949 6.81167 16.1591 7.44917C16.4232 8.08667 17.2307 8.3925 18.1557 8.28333C18.3954 9.41523 18.3954 10.5848 18.1557 11.7167C17.2307 11.6083 16.4224 11.9142 16.1591 12.5508C15.8949 13.1883 16.2491 13.9758 16.9807 14.5533C16.3499 15.5231 15.5229 16.35 14.5532 16.9808C13.9766 16.25 13.1882 15.895 12.5507 16.1592C11.9132 16.4233 11.6074 17.2308 11.7166 18.1558C10.5847 18.3955 9.41511 18.3955 8.28322 18.1558C8.39155 17.2308 8.08572 16.4225 7.44905 16.1592C6.81155 15.895 6.02405 16.2492 5.44655 16.9808C4.47682 16.35 3.64992 15.5231 3.01905 14.5533C3.74988 13.9767 4.10488 13.1883 3.84072 12.5508C3.57655 11.9133 2.76905 11.6075 1.84405 11.7167ZM3.33322 10.175C4.24988 10.4292 5.00572 11.01 5.38072 11.9133C5.75488 12.8175 5.63072 13.7633 5.16238 14.59C5.24238 14.675 5.32488 14.7575 5.40988 14.8375C6.23738 14.3692 7.18238 14.2458 8.08655 14.6192C8.98988 14.9942 9.57072 15.75 9.82488 16.6667C9.94155 16.67 10.0582 16.67 10.1749 16.6667C10.4291 15.75 11.0099 14.9942 11.9132 14.6192C12.8174 14.245 13.7632 14.3692 14.5899 14.8375C14.6749 14.7575 14.7574 14.675 14.8374 14.59C14.3691 13.7625 14.2457 12.8175 14.6191 11.9133C14.9941 11.01 15.7499 10.4292 16.6666 10.175C16.6699 10.0583 16.6699 9.94167 16.6666 9.825C15.7499 9.57083 14.9941 8.99 14.6191 8.08667C14.2449 7.1825 14.3691 6.23667 14.8374 5.41C14.7571 5.32533 14.6746 5.2428 14.5899 5.1625C13.7624 5.63083 12.8174 5.75417 11.9132 5.38083C11.0099 5.00583 10.4291 4.25 10.1749 3.33333C10.0582 3.33025 9.94153 3.33025 9.82488 3.33333C9.57072 4.25 8.98988 5.00583 8.08655 5.38083C7.18238 5.755 6.23655 5.63083 5.40988 5.1625C5.32488 5.2425 5.24238 5.325 5.16238 5.41C5.63072 6.2375 5.75405 7.1825 5.38072 8.08667C5.00572 8.99 4.24988 9.57083 3.33322 9.825C3.32988 9.94167 3.32988 10.0583 3.33322 10.175ZM9.99988 12.5C9.33684 12.5 8.70096 12.2366 8.23212 11.7678C7.76328 11.2989 7.49988 10.663 7.49988 10C7.49988 9.33696 7.76328 8.70107 8.23212 8.23223C8.70096 7.76339 9.33684 7.5 9.99988 7.5C10.6629 7.5 11.2988 7.76339 11.7677 8.23223C12.2365 8.70107 12.4999 9.33696 12.4999 10C12.4999 10.663 12.2365 11.2989 11.7677 11.7678C11.2988 12.2366 10.6629 12.5 9.99988 12.5ZM9.99988 10.8333C10.2209 10.8333 10.4329 10.7455 10.5891 10.5893C10.7454 10.433 10.8332 10.221 10.8332 10C10.8332 9.77899 10.7454 9.56703 10.5891 9.41074C10.4329 9.25446 10.2209 9.16667 9.99988 9.16667C9.77887 9.16667 9.56691 9.25446 9.41063 9.41074C9.25435 9.56703 9.16655 9.77899 9.16655 10C9.16655 10.221 9.25435 10.433 9.41063 10.5893C9.56691 10.7455 9.77887 10.8333 9.99988 10.8333Z" fill="#929FAF"/>
</g>
<defs>
<clipPath id="clip0_912_98">
<rect width="20" height="20" fill="white"/>
</clipPath>
</defs>
</svg>
