<svg width="20" height="20" viewBox="0 0 20 20" fill="none" xmlns="http://www.w3.org/2000/svg">
<g clip-path="url(#clip0_14_24696)">
<path d="M17.5002 16.6665H19.1668V18.3332H0.833496V16.6665H2.50016V2.49984C2.50016 2.27882 2.58796 2.06686 2.74424 1.91058C2.90052 1.7543 3.11248 1.6665 3.3335 1.6665H16.6668C16.8878 1.6665 17.0998 1.7543 17.2561 1.91058C17.4124 2.06686 17.5002 2.27882 17.5002 2.49984V16.6665ZM15.8335 16.6665V3.33317H4.16683V16.6665H15.8335ZM6.66683 9.1665H9.16683V10.8332H6.66683V9.1665ZM6.66683 5.83317H9.16683V7.49984H6.66683V5.83317ZM6.66683 12.4998H9.16683V14.1665H6.66683V12.4998ZM10.8335 12.4998H13.3335V14.1665H10.8335V12.4998ZM10.8335 9.1665H13.3335V10.8332H10.8335V9.1665ZM10.8335 5.83317H13.3335V7.49984H10.8335V5.83317Z" fill="#BBC3CD"/>
</g>
<defs>
<clipPath id="clip0_14_24696">
<rect width="20" height="20" fill="white"/>
</clipPath>
</defs>
</svg>
