<svg width="20" height="20" viewBox="0 0 20 20" fill="none" xmlns="http://www.w3.org/2000/svg">
<g clip-path="url(#clip0_14_24706)">
<path d="M4.80234 14.1667H16.6665V4.16667H3.33317V15.3208L4.80234 14.1667ZM5.379 15.8333L1.6665 18.75V3.33333C1.6665 3.11232 1.7543 2.90036 1.91058 2.74408C2.06686 2.5878 2.27882 2.5 2.49984 2.5H17.4998C17.7208 2.5 17.9328 2.5878 18.0891 2.74408C18.2454 2.90036 18.3332 3.11232 18.3332 3.33333V15C18.3332 15.221 18.2454 15.433 18.0891 15.5893C17.9328 15.7455 17.7208 15.8333 17.4998 15.8333H5.379ZM9.1665 11.6667H10.8332V13.3333H9.1665V11.6667ZM7.139 7.34417C7.24727 6.80233 7.50719 6.30237 7.8885 5.90248C8.26981 5.50259 8.75685 5.2192 9.29293 5.0853C9.82901 4.95139 10.3921 4.97248 10.9167 5.1461C11.4412 5.31971 11.9057 5.63873 12.256 6.06602C12.6064 6.4933 12.8282 7.01129 12.8956 7.55971C12.9631 8.10813 12.8734 8.66443 12.637 9.16387C12.4007 9.66332 12.0273 10.0854 11.5605 10.3809C11.0936 10.6765 10.5524 10.8334 9.99984 10.8333H9.1665V9.16667H9.99984C10.2366 9.16665 10.4684 9.09941 10.6684 8.97277C10.8685 8.84614 11.0284 8.6653 11.1296 8.45132C11.2309 8.23734 11.2693 7.999 11.2404 7.76404C11.2115 7.52908 11.1165 7.30715 10.9664 7.12409C10.8163 6.94103 10.6173 6.80436 10.3925 6.72997C10.1678 6.65559 9.92653 6.64656 9.69686 6.70392C9.46718 6.76129 9.25852 6.88269 9.09514 7.05401C8.93177 7.22533 8.8204 7.43953 8.774 7.67167L7.139 7.34417Z" fill="#BBC3CD"/>
</g>
<defs>
<clipPath id="clip0_14_24706">
<rect width="20" height="20" fill="white"/>
</clipPath>
</defs>
</svg>
